<svg width="1920" height="289" viewBox="0 0 1920 289" fill="none" xmlns="http://www.w3.org/2000/svg">
<g filter="url(#filter0_f_360_133)">
<path d="M0 289C639.538 289 1279.08 289 1918.61 289" stroke="url(#paint0_linear_360_133)" stroke-miterlimit="10"/>
<path d="M0 281.035C323.846 281.094 647.532 279.669 971.299 278.057C1111.38 277.356 1252.43 277.586 1392.5 279.064C1567.84 280.912 1743.26 279.171 1918.56 281.035" stroke="url(#paint1_linear_360_133)" stroke-miterlimit="10"/>
<path d="M0 273.185C91.7604 273.185 183.547 273.469 275.295 273.33C357.289 273.206 439.096 270.535 521.064 270.075C673.753 269.218 826.416 270.214 979.093 269.202C1114.61 268.303 1251.52 265.92 1386.94 269.555C1465.87 271.697 1543.99 272.671 1622.99 273.554C1721.58 274.657 1820.06 271.665 1918.61 273.185" stroke="url(#paint2_linear_360_133)" stroke-miterlimit="10"/>
<path d="M0 265.444C90.4413 265.444 181.123 266.055 271.537 265.396C356.503 264.775 440.975 260.422 525.874 259.304C678.856 257.285 830.64 263.051 983.463 262.023C1117.94 261.135 1250.51 253.918 1385.13 260.374C1463.82 264.149 1540.07 267.104 1619.34 267.966C1719.27 269.037 1818.7 263.827 1918.61 265.444" stroke="url(#paint3_linear_360_133)" stroke-miterlimit="10"/>
<path d="M0 257.854C88.8025 257.854 178.258 258.828 266.994 257.484C355.73 256.141 443.2 249.958 531.669 247.961C612.091 246.146 691.381 246.633 771.376 250.584C843.071 254.128 912.714 256.687 984.995 256.301C1048.35 255.959 1107.71 252.094 1170.27 248.491C1241.88 244.363 1315.6 246.29 1386.53 251.548C1464.61 257.34 1538.25 262.881 1617.98 263.512C1718.55 264.315 1817.98 256.467 1918.61 257.854" stroke="url(#paint4_linear_360_133)" stroke-miterlimit="10"/>
<path d="M0 250.369C86.8839 250.369 175.087 251.681 261.824 249.582C354.504 247.344 445.611 239.239 538.091 236.198C617.495 233.553 697.428 235.366 775.587 241.584C845.363 247.055 912.821 251.943 984.143 251.718C1050.19 251.509 1109.95 244.791 1174.06 239.356C1246.83 233.189 1318.85 235.529 1390.52 243.008C1467.33 251.038 1538.24 259.69 1618.51 259.92C1719.25 260.215 1817.7 249.47 1918.61 250.374" stroke="url(#paint5_linear_360_133)" stroke-miterlimit="10"/>
<path d="M0 243.004C84.8321 242.972 171.743 244.61 256.282 241.746C353.331 238.486 448.143 228.427 544.833 224.225C625.975 220.702 700.96 223.979 779.224 232.828C846.229 240.408 911.129 247.999 981.411 248.015C1050.91 248.015 1112.73 237.924 1178.68 230.558C1253.81 222.169 1323.1 224.61 1396.51 234.744C1471.23 245.055 1539.83 257.228 1620.55 256.96C1721.14 256.596 1817.74 242.758 1918.61 243.004" stroke="url(#paint6_linear_360_133)" stroke-miterlimit="10"/>
<path d="M0 235.753C82.687 235.705 168.292 237.525 250.486 234.003C351.986 229.656 450.341 217.654 551.482 212.236C633.756 207.83 705.171 212.541 782.169 224.329C845.696 234.056 908.091 244.597 977.228 244.929C1050.29 245.282 1116.17 231.423 1183.75 222.092C1261.78 211.315 1328.41 213.607 1403.83 226.738C1475.64 239.244 1542.61 255.299 1623.67 254.399C1723.9 253.286 1817.95 236.267 1918.59 235.753" stroke="url(#paint7_linear_360_133)" stroke-miterlimit="10"/>
<path d="M0 228.623C80.5685 228.559 164.841 230.497 244.81 226.391C350.653 220.957 452.566 207.07 557.917 200.443C641.856 195.159 709.221 201.208 784.593 216.102C844.204 227.879 904.08 241.482 972.258 242.199C1048.9 242.997 1120.06 224.994 1189.19 213.928C1225.41 208.162 1263.58 202.761 1303.06 204.003C1341.7 205.223 1378.28 211.76 1412.07 218.992C1480.18 233.538 1546.54 253.559 1627.58 252.028C1727.38 250.138 1818.29 229.951 1918.63 228.639" stroke="url(#paint8_linear_360_133)" stroke-miterlimit="10"/>
<path d="M0.0656738 221.617C78.6756 221.537 161.576 223.523 239.36 218.94C349.24 212.484 454.338 196.804 563.592 189.03C649.45 182.917 712.924 190.192 786.258 208.153C841.858 221.772 899.23 238.416 966.794 239.546C1046.74 240.879 1124.01 218.64 1194.47 206.054C1231.38 199.459 1272.08 192.505 1313.3 194.036C1351.94 195.471 1388.14 203.308 1420.45 211.435C1484.87 227.645 1550.55 251.709 1631.79 249.562C1731.16 246.928 1818.57 223.673 1918.64 221.617" stroke="url(#paint9_linear_360_133)" stroke-miterlimit="10"/>
<path d="M0.0800781 214.73C76.8113 214.634 158.486 216.62 234.284 211.7C347.749 204.329 455.671 186.994 568.31 178.182C611.199 174.831 651.849 172.893 693.859 178.771C728.088 183.562 758.199 191.973 787.245 200.474C839.207 215.673 894.061 235.165 961.466 236.691C1044.34 238.57 1127.83 212.3 1199.43 198.429C1236.97 191.153 1280.18 182.727 1322.98 184.51C1361.79 186.116 1397.51 195.147 1428.44 204.066C1489.43 221.647 1554.32 249.475 1636.01 246.782C1735.01 243.511 1818.79 217.375 1918.69 214.704" stroke="url(#paint10_linear_360_133)" stroke-miterlimit="10"/>
<path d="M0.0930176 207.959C75.2121 207.857 155.781 209.832 229.834 204.688C346.176 196.604 456.15 177.781 571.627 168.139C614.663 164.547 655.193 162.32 696.99 168.99C730.899 174.435 759.798 183.777 787.431 193.113C836.342 209.618 888.904 231.557 956.642 233.404C999.931 234.587 1043.46 225.513 1080.85 217.83C1122.32 209.308 1162.2 199.596 1203.66 191.063C1241.77 183.225 1287.07 173.61 1331.3 175.618C1370.4 177.39 1405.56 187.342 1435.38 196.925C1493.57 215.662 1557.24 246.638 1639.71 243.5C1738.54 239.753 1818.82 211.015 1918.71 207.937" stroke="url(#paint11_linear_360_133)" stroke-miterlimit="10"/>
<path d="M0.106689 201.312C73.8801 201.21 153.596 203.191 226.223 197.95C344.618 189.411 455.871 169.303 573.279 159.062C616.115 155.315 656.952 152.922 698.322 160.069C732.191 165.92 760.224 176.065 786.858 186.044C833.731 203.598 884.308 227.356 952.872 229.407C997.346 230.723 1042.14 220.895 1080.11 212.768C1122.98 203.587 1164.05 193.137 1206.92 183.945C1245.55 175.653 1292.19 165.283 1337.61 167.398C1377.11 169.239 1411.67 179.812 1440.68 189.946C1497.08 209.642 1558.79 242.838 1642.59 239.492C1741.42 235.547 1818.63 204.502 1918.72 201.333" stroke="url(#paint12_linear_360_133)" stroke-miterlimit="10"/>
<path d="M0.133301 194.779C72.8674 194.694 152.09 196.712 223.652 191.514C343.046 182.841 454.605 161.679 572.92 151.16C615.169 147.412 656.766 144.971 697.55 152.166C731.698 158.189 759.345 168.879 785.486 179.281C831.613 197.665 880.697 222.376 950.7 224.368C996.161 225.663 1041.07 215.733 1079.58 207.237C1123.35 197.601 1165.19 186.615 1208.94 176.968C1248.07 168.339 1294.9 157.803 1341.26 159.902C1381.23 161.711 1415.2 172.477 1443.85 183.045C1499.81 203.682 1558.58 237.719 1644.33 234.406C1743.42 230.578 1818.3 197.622 1918.8 194.79" stroke="url(#paint13_linear_360_133)" stroke-miterlimit="10"/>
<path d="M0.146484 188.355C72.6141 188.173 151.584 190.443 222.839 185.143C341.42 176.304 451.554 154.511 568.936 143.745C611.065 139.885 652.635 137.572 693.392 144.682C728.034 150.736 756.227 161.556 782.755 172.086C829.734 190.737 879.338 215.764 950.26 218.098C996.041 219.603 1040.69 209.795 1079.37 201.166C1123.2 191.38 1164.96 180.18 1208.78 170.389C1248.1 161.599 1294.69 151.208 1341.39 153.456C1381.63 155.394 1415.4 166.181 1444.1 176.866C1500.29 197.793 1557.94 231.38 1644.37 228.259C1743.74 224.683 1817.85 190.828 1918.76 188.355" stroke="url(#paint14_linear_360_133)" stroke-miterlimit="10"/>
<path d="M0.159668 182.076C72.9338 181.744 151.664 184.608 223.172 178.939C339.648 169.704 447.303 147.552 562.54 136.406C605.176 132.278 645.654 130.132 686.997 137.289C722.265 143.387 751.457 154.093 778.957 164.533C827.496 182.98 879.191 208.259 950.114 211.444C995.614 213.489 1040.42 203.655 1078.77 195.031C1122.07 185.293 1163.2 174.083 1206.49 164.334C1245.73 155.496 1292.32 145.185 1338.95 147.857C1379.07 150.153 1413.34 161.096 1442.44 171.663C1498.92 192.167 1558.23 225.122 1643.63 222.092C1743.23 218.554 1817.58 184.506 1918.73 182.076" stroke="url(#paint15_linear_360_133)" stroke-miterlimit="10"/>
<path d="M0.186768 175.902C73.3739 175.506 151.891 179.168 223.839 173.166C337.943 163.648 442.787 141.206 555.599 129.803C598.595 125.446 638.126 123.502 679.936 130.569C715.75 136.624 746.115 147.052 774.641 157.411C824.805 175.613 878.886 200.801 949.741 204.757C994.829 207.279 1039.29 197.648 1077.29 189.061C1119.86 179.425 1160.12 168.284 1202.67 158.653C1241.78 149.798 1287.94 139.782 1334.36 142.834C1374.51 145.478 1409.4 156.469 1439.15 166.924C1496.37 187 1557.64 219.131 1642.37 216.144C1742.42 212.621 1817.18 178.354 1918.77 175.934" stroke="url(#paint16_linear_360_133)" stroke-miterlimit="10"/>
<path d="M0.213379 169.848C73.9068 169.468 152.383 174.099 224.838 167.793C336.331 158.097 438.124 135.426 548.284 123.825C591.453 119.279 630.238 117.572 672.395 124.435C708.848 130.366 740.346 140.495 769.978 150.667C822.233 168.542 878.206 193.366 949.261 198.05C993.816 200.984 1037.49 191.771 1075.12 183.243C1116.75 173.799 1155.99 162.755 1197.6 153.301C1236.57 144.441 1281.83 134.922 1327.97 138.311C1368.32 141.282 1403.92 152.23 1434.56 162.541C1492.94 182.172 1556.38 213.318 1640.67 210.347C1741.33 206.798 1816.66 172.3 1918.87 169.864" stroke="url(#paint17_linear_360_133)" stroke-miterlimit="10"/>
<path d="M0.226318 163.911C74.5193 163.611 152.969 169.356 226.077 162.776C334.771 152.996 433.327 130.12 540.649 118.455C583.792 113.755 622.044 112.293 664.413 118.857C701.52 124.606 734.123 134.382 764.967 144.243C819.595 161.711 877.273 185.941 948.595 191.299C1034.67 197.772 1121.64 164.088 1191.39 148.21C1230.22 139.366 1274.25 130.506 1319.99 134.216C1360.66 137.519 1397 148.36 1428.7 158.515C1488.55 177.686 1554.37 207.718 1638.44 204.731C1739.85 201.134 1815.9 166.385 1918.84 163.911" stroke="url(#paint18_linear_360_133)" stroke-miterlimit="10"/>
<path d="M0.253174 158.097C75.199 157.931 153.662 164.907 227.529 158.097C333.306 148.311 428.464 125.329 532.802 113.626C575.798 108.808 613.677 107.608 656.166 113.792C693.952 119.301 727.688 128.642 759.745 138.193C816.743 155.164 876.141 178.585 947.822 184.608C1032.59 191.717 1115.82 159.007 1184.28 143.386C1222.13 134.761 1266.26 126.067 1310.75 130.511C1352.05 134.633 1388.44 144.628 1421.93 154.8C1483.5 173.483 1551.85 202.301 1635.93 199.282C1738.2 195.615 1815.06 160.603 1918.87 158.06" stroke="url(#paint19_linear_360_133)" stroke-miterlimit="10"/>
<path d="M0.279541 152.396C75.9316 152.396 154.475 160.71 229.168 153.649C331.933 143.933 423.6 120.854 524.861 109.216C700.734 88.985 792.481 163.671 946.969 177.964C1030.24 185.679 1109.27 154.147 1176.48 138.841C1214.16 130.276 1256.59 122.476 1300.51 127.171C1342.34 131.641 1379.58 141.416 1414.42 151.395C1477.91 169.597 1548.91 197.103 1633.15 194.035C1736.37 190.288 1814.14 155.003 1918.91 152.396" stroke="url(#paint20_linear_360_133)" stroke-miterlimit="10"/>
<path d="M0.306396 146.817C76.6912 147.042 155.368 156.721 230.953 149.451C330.654 139.863 418.817 116.731 516.92 105.194C689.156 84.9478 794.053 156.052 946.05 171.368C1027.88 179.623 1102.16 149.489 1168.16 134.478C1205.68 125.944 1246.25 119.172 1289.55 124.081C1331.93 128.899 1370.12 138.428 1406.36 148.198C1471.88 165.865 1545.59 192.048 1630.2 188.911C1734.43 185.051 1813.17 149.51 1918.95 146.817" stroke="url(#paint21_linear_360_133)" stroke-miterlimit="10"/>
<path d="M0.333252 141.357C77.4775 141.813 156.314 152.905 232.845 145.453C329.496 136.041 414.048 112.882 509.113 101.501C677.697 81.313 795.572 148.531 945.104 164.87C1025.47 173.65 1094.7 144.998 1159.54 130.281C1196.92 121.796 1235.48 116.111 1278.12 121.18C1321.09 126.314 1360.26 135.635 1397.94 145.164C1465.57 162.295 1541.99 187.114 1627.03 183.907C1732.28 179.929 1812.06 144.12 1918.89 141.336" stroke="url(#paint22_linear_360_133)" stroke-miterlimit="10"/>
<path d="M0.359863 136.015C78.2503 136.705 157.313 149.216 234.857 141.609C328.523 132.412 409.584 109.242 501.585 98.0535C666.585 77.9835 797.064 141.165 944.145 158.483C1023.06 167.777 1087.09 140.651 1150.82 126.218C1188.05 117.786 1224.73 113.22 1266.66 118.471C1310.23 123.932 1350.42 133.017 1389.52 142.31C1459.27 158.906 1538.38 182.354 1623.95 179.067C1730.31 174.977 1811.08 138.916 1918.97 136.015" stroke="url(#paint23_linear_360_133)" stroke-miterlimit="10"/>
<path d="M0.38623 130.794C78.9961 131.715 158.326 145.612 236.762 137.877C327.55 128.92 405.187 105.756 494.256 94.7871C655.993 74.8724 798.57 133.942 943.265 152.229C1020.74 162.026 1079.57 136.426 1142.25 122.25C1179.32 113.872 1214.2 110.424 1255.33 115.826C1299.5 121.618 1340.71 130.494 1381.2 139.531C1453 155.559 1534.76 177.684 1620.91 174.328C1728.34 170.125 1810.11 133.771 1919.05 130.805" stroke="url(#paint24_linear_360_133)" stroke-miterlimit="10"/>
<path d="M0.413086 125.688C79.8091 126.828 159.325 142.059 238.721 134.216C326.777 125.517 401.137 102.368 487.435 91.6344C646.067 71.9014 800.049 126.871 942.32 146.127C1018.5 156.438 1072.07 132.257 1133.89 118.364C1170.83 110.066 1203.89 107.657 1244.33 113.214C1289.07 119.339 1331.28 128.038 1373.09 136.812C1446.86 152.289 1531.13 173.114 1617.89 169.672C1726.33 165.363 1809.05 128.745 1919 125.688" stroke="url(#paint25_linear_360_133)" stroke-miterlimit="10"/>
<path d="M0.439941 120.704C80.5821 122.032 160.324 138.515 240.613 130.592C326.151 122.155 397.433 99.0063 481.146 88.5242C562.354 78.3526 648.745 89.8358 724.597 102.106C797.744 113.942 867.281 129.467 941.52 140.201C1016.75 151.079 1064.72 128.038 1126.08 114.505C1207.55 96.5437 1291 119.323 1365.57 134.093C1441.13 149.04 1527.78 168.623 1615.1 165.105C1724.5 160.705 1808.13 123.83 1919.05 120.698" stroke="url(#paint26_linear_360_133)" stroke-miterlimit="10"/>
<path d="M0.466064 115.833C81.3543 117.316 161.11 134.94 242.425 126.957C325.685 118.777 394.128 95.6446 475.59 85.3926C556.052 75.253 644.721 86.2652 720.932 97.5023C795.559 108.509 866.587 123.044 940.814 134.479C1015.04 145.914 1058.4 124.002 1118.97 110.661C1198.59 93.1284 1285.51 117.621 1358.79 131.353C1435.94 145.807 1524.78 164.202 1612.58 160.637C1722.84 156.156 1807.29 119.034 1919.03 115.833" stroke="url(#paint27_linear_360_133)" stroke-miterlimit="10"/>
<path d="M0.49292 111.084C82.1406 112.69 161.83 131.299 244.09 123.269C325.365 115.34 391.291 92.2183 470.593 82.1644C550.442 72.0729 641.137 82.6355 717.695 92.941C793.64 103.172 866.094 116.834 940.201 128.97C975.162 134.693 1000.78 134.929 1034.59 127.546C1062.06 121.545 1085.3 112.829 1112.73 106.785C1149.33 98.7121 1178.48 98.937 1216.81 104.938C1262.87 112.16 1307.75 120.464 1352.94 128.531C1431.38 142.493 1522.15 159.817 1610.36 156.22C1721.37 151.691 1806.54 114.323 1919.07 111.084" stroke="url(#paint28_linear_360_133)" stroke-miterlimit="10"/>
<path d="M0.519531 106.448C82.9267 108.054 162.376 127.551 245.596 119.494C325.258 111.78 388.932 88.5726 466.636 78.7757C546.072 68.7593 638.432 78.8828 715.297 88.412C792.161 97.9411 865.961 110.897 939.828 123.745C973.963 129.682 998.919 130.522 1032.43 123.177C1059 117.353 1081.17 108.755 1107.67 102.888C1144.07 94.8254 1172.77 95.682 1210.43 101.881C1256.72 109.499 1302.29 117.786 1348.33 125.629C1427.76 139.152 1520.3 155.512 1608.64 151.904C1720.26 147.348 1806 109.756 1919.08 106.496" stroke="url(#paint29_linear_360_133)" stroke-miterlimit="10"/>
<path d="M0.546387 101.941C83.7263 103.504 162.723 123.676 246.875 115.597C325.352 108.054 387.041 84.6704 463.665 75.1628C542.995 65.3071 636.354 74.97 713.698 83.8192C791.668 92.7327 866.108 105.147 939.668 118.702C973.111 124.859 997.786 126.154 1031.04 118.809C1056.89 113.108 1078.17 104.564 1103.94 98.8088C1140.16 90.7198 1168.84 92.0314 1205.93 98.4662C1252.28 106.496 1298.38 114.805 1345.14 122.482C1425.08 135.614 1519.17 151.128 1607.44 147.546C1719.5 142.996 1805.66 105.19 1919.21 101.941" stroke="url(#paint30_linear_360_133)" stroke-miterlimit="10"/>
<path d="M0.572754 97.5458C84.5121 98.9644 162.829 119.623 247.914 111.523C325.578 104.13 385.934 80.6452 461.64 71.25C540.716 61.4427 635.301 70.8967 712.845 79.1944C791.615 87.626 866.388 99.7032 939.601 113.991C972.498 120.415 997.306 121.968 1030.39 114.575C1055.7 108.916 1076.32 100.367 1101.59 94.6549C1137.68 86.4964 1166.76 88.0382 1203.41 94.7674C1249.67 103.258 1296.12 111.625 1343.39 119.173C1423.57 131.973 1518.76 146.791 1606.67 143.263C1719 138.761 1805.36 100.752 1919.19 97.5458" stroke="url(#paint31_linear_360_133)" stroke-miterlimit="10"/>
<path d="M0.613281 93.2631C84.979 94.5372 162.75 115.421 248.354 107.246C325.752 99.8584 385.748 76.3946 461.214 67.053C540.21 57.2777 635.222 66.9245 712.792 75.0456C791.842 83.3219 866.375 95.3081 939.682 109.66C972.458 116.085 997.613 117.423 1030.47 110.078C1055.61 104.457 1076.09 95.9826 1101.23 90.3455C1137.21 82.2833 1166.81 83.7823 1203.12 90.7042C1249.18 99.4837 1295.68 107.915 1343.15 115.389C1422.95 127.953 1519.37 142.605 1606.6 138.943C1718.77 134.243 1805.7 96.8766 1919.23 93.2791" stroke="url(#paint32_linear_360_133)" stroke-miterlimit="10"/>
<path d="M0.639404 89.0493C85.1917 90.2592 162.736 111.282 248.54 103.011C325.818 95.559 386.121 72.2931 461.64 63.0102C540.636 53.2991 635.434 63.3689 712.885 71.5436C791.682 79.8628 865.895 91.8277 939.708 105.5C1009.58 118.44 1044.21 98.5409 1101.75 86.1317C1137.72 78.3746 1167.52 79.7879 1203.49 86.7366C1249.35 95.5965 1295.77 104.007 1343.23 111.394C1422.56 123.739 1520.24 138.461 1606.84 134.489C1718.53 129.361 1806.52 93.514 1919.29 89.1296" stroke="url(#paint33_linear_360_133)" stroke-miterlimit="10"/>
<path d="M0.66626 84.9015C85.4717 86.0685 162.829 107.247 248.9 98.906C326.178 91.4113 386.721 68.3916 462.28 59.1944C541.276 49.5582 635.794 60.0135 713.125 68.2149C791.615 76.5395 865.548 88.4508 939.788 101.433C1009.07 113.553 1044.94 94.0077 1102.52 82.1606C1138.5 74.7407 1168.56 76.1112 1204.21 83.0706C1249.86 91.9787 1296.14 100.325 1343.59 107.584C1422.6 119.677 1521.25 134.244 1607.13 130.004C1718.27 124.522 1807.33 90.2335 1919.28 85.1531" stroke="url(#paint34_linear_360_133)" stroke-miterlimit="10"/>
<path d="M0.692627 80.8255C85.7912 81.9605 163.029 103.31 249.42 94.9318C326.604 87.4477 387.507 64.6903 463.119 55.5895C542.115 46.1139 636.327 56.8315 713.511 65.0383C791.628 73.3361 865.402 85.1565 939.908 97.4212C1008.7 108.733 1045.79 89.6212 1103.52 78.3255C1139.59 71.275 1169.87 72.6455 1205.26 79.5996C1250.66 88.5238 1296.85 96.7734 1344.22 103.861C1423.03 115.666 1522.27 129.874 1607.57 125.414C1718.16 119.638 1808.25 86.9606 1919.35 81.2538" stroke="url(#paint35_linear_360_133)" stroke-miterlimit="10"/>
<path d="M0.719238 76.82C86.1775 77.9442 163.269 99.46 250.099 91.0764C327.217 83.635 388.493 61.1342 464.171 52.2153C543.141 42.9055 636.873 53.8641 714.031 62.0443C791.721 70.2887 865.268 81.9861 940.081 93.5123C1008.35 104.032 1046.75 85.4231 1104.75 74.7375C1140.94 68.067 1171.46 69.4857 1206.62 76.4185C1251.66 85.3881 1297.88 93.3694 1345.07 100.327C1423.81 111.805 1523.34 125.489 1608.14 120.826C1718.01 114.814 1809.21 83.7849 1919.33 77.5374" stroke="url(#paint36_linear_360_133)" stroke-miterlimit="10"/>
<path d="M0.759277 72.8936C86.604 74.0178 163.668 95.7204 250.925 87.3477C327.976 79.9654 389.665 57.7649 465.437 49.0282C544.38 39.9274 637.713 51.0571 714.724 59.1996C792.001 67.3582 865.348 78.8947 940.334 89.6711C1008.1 99.4143 1047.88 81.3573 1106.23 71.3197C1142.59 65.0616 1173.34 66.5605 1208.3 73.461C1253.07 82.371 1299.12 90.2026 1346.2 96.9142C1424.98 108.033 1524.5 120.972 1608.85 116.186C1718.01 109.993 1810.25 80.6613 1919.41 73.9268" stroke="url(#paint37_linear_360_133)" stroke-miterlimit="10"/>
<path d="M0.786133 69.0491C87.0705 70.1786 164.121 92.0687 251.871 83.7602C328.869 76.4689 390.998 54.5895 466.796 46.0615C545.699 37.1856 638.539 48.4491 715.483 56.5221C792.188 64.5522 865.508 75.9068 940.574 85.9176C1007.86 94.8953 1049.11 77.4539 1107.85 68.0961C1144.41 62.2716 1175.4 63.883 1210.22 70.7729C1254.68 79.5977 1300.52 87.2531 1347.45 93.6908C1426.37 104.398 1525.58 116.475 1609.57 111.577C1717.97 105.26 1811.21 77.6573 1919.39 70.5105" stroke="url(#paint38_linear_360_133)" stroke-miterlimit="10"/>
<path d="M0.812988 65.281C87.577 66.4373 164.695 88.5362 252.951 80.2705C329.895 73.1077 392.477 51.5763 468.355 43.2785C547.205 34.6595 639.538 46.0034 716.31 53.9853C792.481 61.9084 865.722 73.006 940.814 82.2459C1007.63 90.4634 1050.43 73.6805 1109.61 65.0401C1146.4 59.6867 1177.63 61.4212 1212.34 68.2521C1256.51 76.9724 1302.16 84.4233 1348.95 90.5491C1428.12 100.844 1526.76 111.898 1610.45 106.914C1718.07 100.49 1812.26 74.6816 1919.43 67.1654" stroke="url(#paint39_linear_360_133)" stroke-miterlimit="10"/>
<path d="M0.839111 61.5962C88.1228 62.7847 165.227 85.0978 254.136 76.9445C331.027 69.8887 394.102 48.7212 470.06 40.6803C548.843 32.3451 640.604 43.7264 717.268 51.6067C792.907 59.3852 866.081 70.2045 941.107 78.6629C1007.47 86.1577 1051.91 70.06 1111.56 62.1637C1148.6 57.2653 1180.07 59.1872 1214.7 65.9111C1258.55 74.4991 1303.99 81.7225 1350.6 87.5175C1430.07 97.3411 1527.92 107.256 1611.37 102.213C1718.19 95.7886 1813.28 71.7517 1919.43 63.9249" stroke="url(#paint40_linear_360_133)" stroke-miterlimit="10"/>
<path d="M0.866211 58.0028C88.6961 59.2341 165.88 81.7618 255.349 73.7208C332.28 66.8307 395.848 46.0269 471.899 38.2643C550.603 30.234 641.723 41.6102 718.388 49.3729C793.467 56.9856 866.588 67.4946 941.533 75.1662C1007.45 81.917 1053.61 66.5684 1113.76 59.4536C1151.06 55.0423 1182.76 57.1516 1217.36 63.8435C1260.9 72.2809 1306.11 79.252 1352.52 84.6848C1432.3 94.0053 1529.16 102.699 1612.42 97.5975C1718.4 91.1358 1814.34 68.9722 1919.48 60.8776" stroke="url(#paint41_linear_360_133)" stroke-miterlimit="10"/>
<path d="M0.892578 54.5196C89.2688 55.7884 166.546 78.5298 256.801 70.6228C333.612 63.8882 397.713 43.4915 473.844 36.0235C552.454 28.3092 642.949 39.6585 719.44 47.2657C793.973 54.6963 867.04 64.8571 941.826 71.747C1007.33 77.7857 1055.32 63.1815 1115.93 56.8859C1153.5 52.9725 1185.45 55.2798 1220.07 61.9235C1263.28 70.192 1308.24 76.8909 1354.42 81.94C1434.72 90.7196 1530.39 98.0539 1613.51 92.9627C1718.67 86.5386 1815.37 66.2383 1919.51 57.9137" stroke="url(#paint42_linear_360_133)" stroke-miterlimit="10"/>
<path d="M0.919434 51.0922C89.9351 52.4359 167.359 75.3972 258.254 67.6399C335.051 61.0926 399.711 41.1026 475.896 33.9449C554.44 26.5731 644.255 37.8583 720.64 45.3372C794.613 52.5805 867.627 62.356 942.213 68.4644C1007.33 73.8179 1057.21 60.0005 1118.27 54.5452C1156.13 51.1458 1188.32 53.6994 1222.98 60.2521C1265.87 68.3353 1310.58 74.7444 1356.51 79.3909C1437.31 87.5925 1531.64 93.5188 1614.66 88.4223C1718.99 82.0248 1816.38 63.6623 1919.53 55.1448" stroke="url(#paint43_linear_360_133)" stroke-miterlimit="10"/>
<path d="M0.945801 47.778C90.6011 49.1913 168.158 72.372 259.812 64.7861C336.543 58.4315 401.723 38.8644 478.041 32.0333C556.478 25.0095 645.6 36.2144 721.865 43.5273C795.305 50.5672 868.226 59.9305 942.572 65.2572C1007.35 69.8987 1059.17 56.9165 1120.7 52.275C1158.82 49.4001 1191.23 52.2054 1226.02 58.6992C1268.57 66.5814 1313.03 72.6809 1358.69 76.9011C1439.96 84.4817 1532.85 88.9358 1615.83 83.8607C1719.34 77.5382 1817.35 61.1136 1919.56 52.4249" stroke="url(#paint44_linear_360_133)" stroke-miterlimit="10"/>
<path d="M0.972656 44.5669C91.2541 46.0552 169.011 69.455 261.371 62.0512C338.116 55.9001 403.842 36.767 480.253 30.2733C558.583 23.6189 646.999 34.7113 723.211 41.8527C796.132 48.6891 868.946 57.6025 943.052 62.153C1007.55 66.1091 1061.34 53.9729 1123.31 50.188C1161.71 47.8379 1194.35 50.9107 1229.27 57.3081C1271.49 64.9863 1315.68 70.7709 1361.06 74.5569C1442.88 81.4788 1534.19 84.4125 1617.14 79.3749C1719.73 73.1328 1818.33 58.6893 1919.59 49.8561" stroke="url(#paint45_linear_360_133)" stroke-miterlimit="10"/>
<path d="M0.999512 41.4573C91.9338 43.0259 169.891 66.6185 263.01 59.4396C339.755 53.5026 406.027 34.803 482.532 28.6626C560.755 22.3991 648.452 33.3522 724.57 40.3117C796.998 46.9339 869.679 55.3709 943.465 59.1505C1007.74 62.4428 1063.49 51.1685 1125.85 48.2401C1164.49 46.4253 1197.39 49.7766 1232.44 56.0937C1274.33 63.5535 1318.26 69.0069 1363.32 72.3414C1445.66 78.5674 1535.36 79.954 1618.31 74.9538C1720.16 68.8188 1819.14 56.372 1919.52 47.4104" stroke="url(#paint46_linear_360_133)" stroke-miterlimit="10"/>
<path d="M1.02612 38.4592C92.6266 40.1081 170.81 63.942 264.676 56.9503C341.407 51.2274 408.265 32.9772 484.863 27.2168C562.954 21.3279 649.917 32.1581 726.022 38.925C797.97 45.3492 870.491 53.267 943.972 56.2811C1008.13 58.915 1065.78 48.5185 1128.63 46.452C1167.54 45.1725 1200.57 48.8183 1235.96 55.0498C1277.53 62.2875 1321.19 67.4025 1365.92 70.2752C1553.78 82.7436 1737.88 61.7096 1919.71 45.1136" stroke="url(#paint47_linear_360_133)" stroke-miterlimit="10"/>
<path d="M1.05249 35.5587C93.3325 37.2986 171.743 61.3405 266.381 54.5685C343.112 49.0759 410.543 31.2814 487.235 25.8584C565.192 20.3445 651.423 31.0405 727.368 37.6091C798.903 43.8136 871.211 51.2173 944.358 53.4496C1008.5 55.425 1067.96 45.9549 1131.28 44.7237C1170.42 43.9742 1203.73 47.9357 1239.32 54.076C1280.41 61.212 1324.04 65.7623 1368.35 68.2784C1551.43 78.68 1742.38 59.3704 1919.67 42.8875" stroke="url(#paint48_linear_360_133)" stroke-miterlimit="10"/>
<path d="M1.0791 32.7734C94.0386 34.6043 172.689 58.8552 268.1 52.308C344.844 47.0242 412.835 29.7059 489.62 24.6469C567.443 19.5237 652.928 30.0753 728.794 36.4244C799.942 42.3935 871.997 49.2726 944.811 50.7769C1009.07 52.1046 1070.21 43.5284 1134.01 43.1697C1173.38 42.9502 1206.9 47.2222 1242.77 53.2877C1283.59 60.1882 1326.93 64.3478 1370.86 66.4142C1454.55 70.349 1539.41 66.9977 1622.4 62.185C1721.98 56.4087 1821.71 50.0703 1919.69 40.7714" stroke="url(#paint49_linear_360_133)" stroke-miterlimit="10"/>
<path d="M1.10596 30.1023C93.9456 31.9921 172.489 56.2862 267.807 50.301C344.245 45.4828 412.369 28.8389 488.554 23.7905C565.565 18.6886 649.331 28.8121 724.53 34.9258C797.224 40.8146 870.865 47.394 945.277 48.2185C1011.34 48.9519 1075.7 40.8467 1141.62 41.7943C1181.4 42.3671 1214.56 47.5921 1251.03 53.3953C1288.91 59.4233 1328.91 62.8763 1369.36 64.5091C1455.46 67.9835 1540.85 62.8603 1625.92 58.0261C1724.12 52.4477 1823.19 48.1542 1919.76 38.8285" stroke="url(#paint50_linear_360_133)" stroke-miterlimit="10"/>
<path d="M1.11914 27.548C94.5983 29.5288 173.461 54.0267 269.485 48.2716C345.937 43.689 414.607 27.4838 490.912 22.8048C567.763 18.1151 650.863 28.0941 725.956 34.0098C798.303 39.7167 871.664 45.7876 945.69 45.7876C1012.14 45.7876 1077.93 38.7584 1144.39 40.5518C1184.22 41.6225 1217.67 47.1474 1254.41 52.8275C1292.04 58.6415 1331.77 61.7305 1371.88 62.9511C1458.25 65.5797 1542.17 58.8181 1627.22 54.1177C1724.78 48.7267 1823.84 46.43 1919.73 36.9863" stroke="url(#paint51_linear_360_133)" stroke-miterlimit="10"/>
<path d="M1.146 25.1198C95.3313 27.1915 174.354 51.8866 271.191 46.3566C347.669 41.9882 416.873 26.2386 493.284 21.9238C569.975 17.5822 652.422 27.4913 727.475 33.2141C799.423 38.712 872.503 44.2366 946.144 43.4551C1013.07 42.7431 1080.15 36.7687 1147.17 39.3972C1187.06 40.9657 1220.77 46.7848 1257.76 52.3416C1295.07 57.9466 1334.61 60.6715 1374.34 61.4799C1460.95 63.2518 1543.47 54.8845 1628.5 50.3127C1725.45 45.0985 1824.36 44.8095 1919.69 35.2483" stroke="url(#paint52_linear_360_133)" stroke-miterlimit="10"/>
<path d="M1.17236 22.8113C96.0105 24.9526 175.367 49.8566 272.883 44.5567C349.374 40.3971 419.111 25.0758 495.642 21.1464C572.173 17.217 653.954 26.9923 728.807 32.517C800.582 37.8168 873.316 42.8222 946.556 41.2537C1014.07 39.8083 1082.3 34.9046 1149.88 38.3575C1189.85 40.3971 1223.8 46.5321 1261.13 51.9604C1298.46 57.3888 1337.5 59.7228 1376.86 60.1297C1463.46 61.0344 1544.9 51.0985 1629.84 46.6552C1726.22 41.6124 1825.06 43.3254 1919.75 33.6251" stroke="url(#paint53_linear_360_133)" stroke-miterlimit="10"/>
<path d="M1.1853 20.627C96.6763 22.8755 176.312 47.9297 274.521 42.876C351.053 38.9198 421.295 24.0639 497.933 20.4664C574.251 16.885 655.526 26.5961 730.246 31.9335C801.807 37.0408 874.142 41.5216 947.022 39.1821C1015.2 36.9926 1084.44 33.1541 1152.62 37.4155C1192.47 39.9102 1226.82 46.3665 1264.42 51.6718C1301.33 56.8753 1340.36 58.8775 1379.3 58.8936C1465.9 58.9364 1546.3 47.48 1631.11 43.1544C1727.05 38.2613 1825.64 41.9713 1919.75 32.1156" stroke="url(#paint54_linear_360_133)" stroke-miterlimit="10"/>
<path d="M1.19922 18.5771C97.3298 20.9005 177.205 46.1631 276.121 41.3023C352.692 37.5549 423.441 23.1008 500.172 19.8887C576.411 16.6767 656.872 26.3128 731.605 31.4627C803.02 36.3664 874.995 40.344 947.449 37.2444C1016.36 34.3 1086.5 31.527 1155.3 36.5806C1195.14 39.4982 1229.78 46.2809 1267.66 51.463C1304.39 56.4845 1343.1 58.1279 1381.67 57.7639C1468.14 56.9556 1547.7 44.0325 1632.39 39.8087C1727.78 35.0549 1826.12 40.7616 1919.79 30.7079" stroke="url(#paint55_linear_360_133)" stroke-miterlimit="10"/>
<path d="M1.22583 16.6553C97.956 19.059 178.111 44.4932 277.68 39.8464C354.291 36.2649 425.573 22.2764 502.344 19.3695C578.422 16.4893 658.231 26.1094 732.924 31.0667C804.206 35.7831 875.821 39.2628 947.862 35.4191C1017.55 31.7038 1088.55 29.98 1157.83 35.8099C1197.63 39.1558 1232.56 46.2598 1270.78 51.3348C1307.28 56.1529 1345.79 57.4806 1384.03 56.7472C1470.27 55.1037 1549.15 40.7779 1633.7 36.645C1728.63 32.0036 1826.68 39.6911 1919.89 29.4393" stroke="url(#paint56_linear_360_133)" stroke-miterlimit="10"/>
<path d="M1.23926 14.8662C98.5023 17.3449 178.951 42.9612 279.159 38.5018C355.81 35.0863 427.491 21.5206 504.436 18.9348C580.381 16.3866 659.604 25.9907 734.177 30.7767C805.365 35.3539 876.62 38.3091 948.235 33.7372C1018.73 29.2403 1090.37 28.5443 1160.26 35.1291C1199.97 38.8765 1235.24 46.3018 1273.71 51.2591C1310.03 55.938 1348.32 56.907 1386.16 55.8256C1472.1 53.3684 1550.43 37.7202 1634.82 33.6408C1729.42 29.085 1827.07 38.7427 1919.87 28.2445" stroke="url(#paint57_linear_360_133)" stroke-miterlimit="10"/>
<path d="M1.2522 13.2236C99.1282 15.7612 179.79 41.5492 280.557 37.2663C357.275 34.0114 429.396 20.8471 506.421 18.5772C582.246 16.3447 660.856 25.949 735.362 30.5851C806.484 35.0125 877.393 37.4751 948.608 32.1912C1019.82 26.9073 1092.17 27.2178 1162.6 34.5307C1202.22 38.6475 1237.84 46.3084 1276.52 51.2444C1312.49 55.8431 1350.84 56.4213 1388.21 54.9919C1473.8 51.7798 1551.69 34.868 1635.91 30.8421C1730.1 26.3398 1827.47 37.9516 1919.87 27.1696" stroke="url(#paint58_linear_360_133)" stroke-miterlimit="10"/>
<path d="M1.33252 11.6924C99.7414 14.2834 180.576 40.2417 281.943 36.125C358.634 33.0254 431.182 20.2577 508.3 18.2823C583.952 16.3444 662.055 25.9804 736.482 30.4826C807.564 34.7652 878.139 36.762 948.941 30.7824C1021.08 24.6956 1093.85 25.9644 1164.79 33.9943C1204.33 38.459 1240.25 46.4087 1279.16 51.2749C1314.98 55.7556 1353.13 56.0126 1390.12 54.2942C1430.47 52.4152 1469.82 48.1111 1508.56 43.3359C1550.37 38.1914 1593.4 30.3434 1636.95 28.2663C1730.82 23.7856 1827.85 37.3241 1919.88 26.2213" stroke="url(#paint59_linear_360_133)" stroke-miterlimit="10"/>
<path d="M1.33252 10.3525C100.221 12.9864 181.203 39.1112 283.156 35.1336C359.914 32.1357 432.848 19.7211 510.059 18.0401C585.591 16.3752 663.135 26.0702 737.494 30.4601C808.576 34.6465 878.872 36.1722 949.261 29.5179C1022.18 22.6226 1095.44 24.8122 1166.89 33.5383C1206.26 38.3564 1242.49 46.5472 1281.59 51.3438C1317.28 55.7176 1355.25 55.6855 1391.88 53.6726C1432.15 51.467 1471.27 46.7881 1509.79 41.7077C1551.29 36.2364 1594.38 27.9814 1637.92 25.8882C1731.5 21.3967 1828.23 36.836 1919.89 25.3529" stroke="url(#paint60_linear_360_133)" stroke-miterlimit="10"/>
<path d="M1.33252 9.13867C100.674 11.8154 181.869 38.0952 284.262 34.2354C361.073 31.3339 434.353 19.2941 511.631 17.854C587.056 16.4461 664.081 26.2535 738.387 30.5309C809.482 34.6155 879.525 35.713 949.501 28.3895C1023.26 20.6967 1096.85 23.7481 1168.81 33.1433C1208.03 38.2612 1244.53 46.7035 1283.83 51.4466C1319.37 55.7293 1357.11 55.4295 1393.47 53.1544C1433.66 50.6383 1472.58 45.6061 1510.9 40.2473C1552.12 34.4817 1595.26 25.8627 1638.8 23.7374C1732.07 19.187 1828.57 36.5053 1919.93 24.61" stroke="url(#paint61_linear_360_133)" stroke-miterlimit="10"/>
<path d="M1.33252 8.07227C101.087 10.749 182.415 37.2112 285.247 33.4423C362.152 30.621 435.805 18.913 513.163 17.7085C588.508 16.5307 665.053 26.4828 739.28 30.6746C810.401 34.6843 880.244 35.3749 949.794 27.425C1024.31 18.9077 1098.09 22.7622 1170.55 32.7785C1209.65 38.1908 1246.38 46.8527 1285.84 51.5531C1321.26 55.7662 1358.87 55.2309 1394.89 52.7148C1435.02 49.9096 1473.72 44.5561 1511.87 38.9403C1552.87 32.8963 1596.03 23.9828 1639.63 21.8092C1732.71 17.1624 1828.97 36.3171 1919.93 23.9506" stroke="url(#paint62_linear_360_133)" stroke-miterlimit="10"/>
<path d="M1.33252 7.16309C101.474 9.83978 182.881 36.4676 286.114 32.7577C363.031 29.9953 437.018 18.5979 514.442 17.5808C589.708 16.6118 665.746 26.7405 739.972 30.8733C811.134 34.8348 880.844 35.156 949.994 26.5906C1025.29 17.2596 1099.1 21.8421 1172.1 32.4793C1211.02 38.1539 1247.97 47.0138 1287.58 51.6819C1322.88 55.8469 1360.31 55.1081 1396.07 52.3779C1436.15 49.3104 1474.68 43.6679 1512.67 37.8166C1553.48 31.5264 1596.61 22.3828 1640.32 20.1504C1733.2 15.3591 1829.35 36.3177 1919.95 23.4053" stroke="url(#paint63_linear_360_133)" stroke-miterlimit="10"/>
<path d="M1.33252 6.40234C100.981 9.07906 182.122 35.7071 284.754 32.2541C365.856 29.5292 444.253 17.2216 526.087 17.4733C596.05 17.6874 666.252 26.9221 735.362 30.8943C808.789 35.1129 879.072 34.9951 950.181 25.9638C1029.03 15.9743 1102.91 21.226 1178.91 33.1053C1212.98 38.4266 1245.43 45.6859 1279.76 50.67C1316.08 55.9431 1355.95 55.4292 1393.33 52.5008C1435.74 49.1817 1476.33 42.8646 1516.33 36.4405C1556.65 29.9414 1599.51 20.7924 1642.99 18.651C1734.92 14.1488 1830.53 36.3763 1919.93 22.9712" stroke="url(#paint64_linear_360_133)" stroke-miterlimit="10"/>
<path d="M1.33252 5.80371C101.26 8.44294 182.402 35.2474 285.314 31.7891C366.442 29.0589 445.199 17.0405 527.006 17.442C596.916 17.79 666.759 27.2816 735.829 31.2591C809.309 35.4883 879.578 35.0708 950.341 25.4507C1029.99 14.6154 1103.48 20.4827 1180.11 32.9455C1214.02 38.4595 1246.57 45.7829 1280.98 50.7723C1317.22 56.0508 1356.93 55.4298 1394.09 52.3355C1436.47 48.8076 1476.91 42.2176 1516.78 35.6222C1557.05 28.9625 1599.9 19.7119 1643.48 17.4634C1735.24 12.7631 1830.96 36.6554 1919.95 22.6027" stroke="url(#paint65_linear_360_133)" stroke-miterlimit="10"/>
<path d="M1.33252 5.37402C101.46 7.97045 182.535 34.9358 285.74 31.424C366.882 28.6616 445.812 16.9 527.726 17.43C597.609 17.8797 667.118 27.6765 736.162 31.6863C809.682 35.9691 880.058 35.2892 950.367 25.0908C1030.79 13.431 1103.7 19.7909 1180.97 32.7784C1214.8 38.4584 1247.43 45.8569 1281.87 50.9052C1318.09 56.2105 1357.45 55.5413 1394.58 52.3025C1480.37 44.8076 1557.24 21.3434 1643.85 16.6109C1735.45 11.6055 1831.42 37.1093 1919.95 22.3498" stroke="url(#paint66_linear_360_133)" stroke-miterlimit="10"/>
<path d="M1.33252 5.10449C101.62 7.64735 182.668 34.7729 285.994 31.1754C367.148 28.3435 446.345 16.8123 528.219 17.428C598.115 17.9633 667.318 28.1026 736.335 32.1819C809.882 36.5288 880.498 35.6509 950.407 24.9013C1031.54 12.4226 1103.63 19.1518 1181.64 32.6637C1215.19 38.4614 1247.9 46.1435 1282.42 50.9937C1319.09 56.1383 1357.26 55.7207 1394.79 52.3374C1480.73 44.5857 1557.17 21.1004 1644.09 16.0254C1735.57 10.672 1831.96 37.7333 1919.89 22.1925" stroke="url(#paint67_linear_360_133)" stroke-miterlimit="10"/>
<path d="M1.33252 5C101.727 7.46794 182.628 34.7544 286.06 31.0231C367.215 28.0947 446.518 16.7562 528.552 17.42C598.461 17.9874 667.398 28.5551 736.402 32.7308C809.948 37.1795 880.937 36.157 950.434 24.8666C1032.19 11.574 1103.27 18.5442 1182.03 32.5702C1253.97 45.3757 1313.25 59.9531 1394.73 52.4475C1480.89 44.5084 1556.97 21.2209 1644.2 15.739C1735.57 9.99476 1832.46 38.5179 1920 22.1631" stroke="url(#paint68_linear_360_133)" stroke-miterlimit="10"/>
</g>
<defs>
<filter id="filter0_f_360_133" x="-4.00049" y="0.5" width="1928.09" height="293" filterUnits="userSpaceOnUse" color-interpolation-filters="sRGB">
<feFlood flood-opacity="0" result="BackgroundImageFix"/>
<feBlend mode="normal" in="SourceGraphic" in2="BackgroundImageFix" result="shape"/>
<feGaussianBlur stdDeviation="2" result="effect1_foregroundBlur_360_133"/>
</filter>
<linearGradient id="paint0_linear_360_133" x1="1.38321e+06" y1="390.67" x2="1.38321e+06" y2="316.45" gradientUnits="userSpaceOnUse">
<stop stop-color="#B82C2C"/>
<stop offset="1" stop-color="#FFDBDB"/>
</linearGradient>
<linearGradient id="paint1_linear_360_133" x1="1.38317e+06" y1="619.281" x2="1.38317e+06" y2="369.907" gradientUnits="userSpaceOnUse">
<stop stop-color="#B82C2C"/>
<stop offset="1" stop-color="#FFDBDB"/>
</linearGradient>
<linearGradient id="paint2_linear_360_133" x1="1.38321e+06" y1="898.256" x2="1.38321e+06" y2="437.873" gradientUnits="userSpaceOnUse">
<stop stop-color="#B82C2C"/>
<stop offset="1" stop-color="#FFDBDB"/>
</linearGradient>
<linearGradient id="paint3_linear_360_133" x1="1.38321e+06" y1="1314.82" x2="1.38321e+06" y2="543.124" gradientUnits="userSpaceOnUse">
<stop stop-color="#B82C2C"/>
<stop offset="1" stop-color="#FFDBDB"/>
</linearGradient>
<linearGradient id="paint4_linear_360_133" x1="1.38321e+06" y1="2006.41" x2="1.38321e+06" y2="721.485" gradientUnits="userSpaceOnUse">
<stop stop-color="#B82C2C"/>
<stop offset="1" stop-color="#FFDBDB"/>
</linearGradient>
<linearGradient id="paint5_linear_360_133" x1="1.38321e+06" y1="2767.28" x2="1.38321e+06" y2="918.706" gradientUnits="userSpaceOnUse">
<stop stop-color="#B82C2C"/>
<stop offset="1" stop-color="#FFDBDB"/>
</linearGradient>
<linearGradient id="paint6_linear_360_133" x1="1.38321e+06" y1="3692.89" x2="1.38321e+06" y2="1159.72" gradientUnits="userSpaceOnUse">
<stop stop-color="#B82C2C"/>
<stop offset="1" stop-color="#FFDBDB"/>
</linearGradient>
<linearGradient id="paint7_linear_360_133" x1="1.38319e+06" y1="4666.39" x2="1.38319e+06" y2="1413.63" gradientUnits="userSpaceOnUse">
<stop stop-color="#B82C2C"/>
<stop offset="1" stop-color="#FFDBDB"/>
</linearGradient>
<linearGradient id="paint8_linear_360_133" x1="1.38322e+06" y1="5642.84" x2="1.38322e+06" y2="1668.47" gradientUnits="userSpaceOnUse">
<stop stop-color="#B82C2C"/>
<stop offset="1" stop-color="#FFDBDB"/>
</linearGradient>
<linearGradient id="paint9_linear_360_133" x1="1.38318e+06" y1="6571.07" x2="1.38318e+06" y2="1910.57" gradientUnits="userSpaceOnUse">
<stop stop-color="#B82C2C"/>
<stop offset="1" stop-color="#FFDBDB"/>
</linearGradient>
<linearGradient id="paint10_linear_360_133" x1="1.38321e+06" y1="7491.87" x2="1.38321e+06" y2="2150.49" gradientUnits="userSpaceOnUse">
<stop stop-color="#B82C2C"/>
<stop offset="1" stop-color="#FFDBDB"/>
</linearGradient>
<linearGradient id="paint11_linear_360_133" x1="1.38321e+06" y1="8198.9" x2="1.38321e+06" y2="2333.86" gradientUnits="userSpaceOnUse">
<stop stop-color="#B82C2C"/>
<stop offset="1" stop-color="#FFDBDB"/>
</linearGradient>
<linearGradient id="paint12_linear_360_133" x1="1.38321e+06" y1="8722.52" x2="1.38321e+06" y2="2468.49" gradientUnits="userSpaceOnUse">
<stop stop-color="#B82C2C"/>
<stop offset="1" stop-color="#FFDBDB"/>
</linearGradient>
<linearGradient id="paint13_linear_360_133" x1="1.38324e+06" y1="9001.85" x2="1.38324e+06" y2="2538.13" gradientUnits="userSpaceOnUse">
<stop stop-color="#B82C2C"/>
<stop offset="1" stop-color="#FFDBDB"/>
</linearGradient>
<linearGradient id="paint14_linear_360_133" x1="1.38321e+06" y1="9125.49" x2="1.38321e+06" y2="2566.06" gradientUnits="userSpaceOnUse">
<stop stop-color="#B82C2C"/>
<stop offset="1" stop-color="#FFDBDB"/>
</linearGradient>
<linearGradient id="paint15_linear_360_133" x1="1.38318e+06" y1="9250.85" x2="1.38318e+06" y2="2594.45" gradientUnits="userSpaceOnUse">
<stop stop-color="#B82C2C"/>
<stop offset="1" stop-color="#FFDBDB"/>
</linearGradient>
<linearGradient id="paint16_linear_360_133" x1="1.38319e+06" y1="9321.71" x2="1.38319e+06" y2="2608.68" gradientUnits="userSpaceOnUse">
<stop stop-color="#B82C2C"/>
<stop offset="1" stop-color="#FFDBDB"/>
</linearGradient>
<linearGradient id="paint17_linear_360_133" x1="1.38323e+06" y1="9341.66" x2="1.38323e+06" y2="2609.65" gradientUnits="userSpaceOnUse">
<stop stop-color="#B82C2C"/>
<stop offset="1" stop-color="#FFDBDB"/>
</linearGradient>
<linearGradient id="paint18_linear_360_133" x1="1.38321e+06" y1="9317.11" x2="1.38321e+06" y2="2599.07" gradientUnits="userSpaceOnUse">
<stop stop-color="#B82C2C"/>
<stop offset="1" stop-color="#FFDBDB"/>
</linearGradient>
<linearGradient id="paint19_linear_360_133" x1="1.38321e+06" y1="9252.47" x2="1.38321e+06" y2="2578.07" gradientUnits="userSpaceOnUse">
<stop stop-color="#B82C2C"/>
<stop offset="1" stop-color="#FFDBDB"/>
</linearGradient>
<linearGradient id="paint20_linear_360_133" x1="1.38322e+06" y1="9104.35" x2="1.38322e+06" y2="2535.3" gradientUnits="userSpaceOnUse">
<stop stop-color="#B82C2C"/>
<stop offset="1" stop-color="#FFDBDB"/>
</linearGradient>
<linearGradient id="paint21_linear_360_133" x1="1.38323e+06" y1="9005.16" x2="1.38323e+06" y2="2505.48" gradientUnits="userSpaceOnUse">
<stop stop-color="#B82C2C"/>
<stop offset="1" stop-color="#FFDBDB"/>
</linearGradient>
<linearGradient id="paint22_linear_360_133" x1="1.38317e+06" y1="8885.52" x2="1.38317e+06" y2="2470.37" gradientUnits="userSpaceOnUse">
<stop stop-color="#B82C2C"/>
<stop offset="1" stop-color="#FFDBDB"/>
</linearGradient>
<linearGradient id="paint23_linear_360_133" x1="1.38321e+06" y1="8758.38" x2="1.38321e+06" y2="2433.42" gradientUnits="userSpaceOnUse">
<stop stop-color="#B82C2C"/>
<stop offset="1" stop-color="#FFDBDB"/>
</linearGradient>
<linearGradient id="paint24_linear_360_133" x1="1.38324e+06" y1="8623.98" x2="1.38324e+06" y2="2394.64" gradientUnits="userSpaceOnUse">
<stop stop-color="#B82C2C"/>
<stop offset="1" stop-color="#FFDBDB"/>
</linearGradient>
<linearGradient id="paint25_linear_360_133" x1="1.38319e+06" y1="8487.99" x2="1.38319e+06" y2="2355.5" gradientUnits="userSpaceOnUse">
<stop stop-color="#B82C2C"/>
<stop offset="1" stop-color="#FFDBDB"/>
</linearGradient>
<linearGradient id="paint26_linear_360_133" x1="1.38321e+06" y1="8310.72" x2="1.38321e+06" y2="2305.59" gradientUnits="userSpaceOnUse">
<stop stop-color="#B82C2C"/>
<stop offset="1" stop-color="#FFDBDB"/>
</linearGradient>
<linearGradient id="paint27_linear_360_133" x1="1.38317e+06" y1="8183.99" x2="1.38317e+06" y2="2269.02" gradientUnits="userSpaceOnUse">
<stop stop-color="#B82C2C"/>
<stop offset="1" stop-color="#FFDBDB"/>
</linearGradient>
<linearGradient id="paint28_linear_360_133" x1="1.38318e+06" y1="8070.92" x2="1.38318e+06" y2="2236.08" gradientUnits="userSpaceOnUse">
<stop stop-color="#B82C2C"/>
<stop offset="1" stop-color="#FFDBDB"/>
</linearGradient>
<linearGradient id="paint29_linear_360_133" x1="1.38317e+06" y1="7981.99" x2="1.38317e+06" y2="2209.55" gradientUnits="userSpaceOnUse">
<stop stop-color="#B82C2C"/>
<stop offset="1" stop-color="#FFDBDB"/>
</linearGradient>
<linearGradient id="paint30_linear_360_133" x1="1.38324e+06" y1="7905.28" x2="1.38324e+06" y2="2186.2" gradientUnits="userSpaceOnUse">
<stop stop-color="#B82C2C"/>
<stop offset="1" stop-color="#FFDBDB"/>
</linearGradient>
<linearGradient id="paint31_linear_360_133" x1="1.38321e+06" y1="7867.17" x2="1.38321e+06" y2="2173.03" gradientUnits="userSpaceOnUse">
<stop stop-color="#B82C2C"/>
<stop offset="1" stop-color="#FFDBDB"/>
</linearGradient>
<linearGradient id="paint32_linear_360_133" x1="1.38321e+06" y1="7848.95" x2="1.38321e+06" y2="2165.09" gradientUnits="userSpaceOnUse">
<stop stop-color="#B82C2C"/>
<stop offset="1" stop-color="#FFDBDB"/>
</linearGradient>
<linearGradient id="paint33_linear_360_133" x1="1.38324e+06" y1="7798.81" x2="1.38324e+06" y2="2148.7" gradientUnits="userSpaceOnUse">
<stop stop-color="#B82C2C"/>
<stop offset="1" stop-color="#FFDBDB"/>
</linearGradient>
<linearGradient id="paint34_linear_360_133" x1="1.38321e+06" y1="7723.37" x2="1.38321e+06" y2="2125.63" gradientUnits="userSpaceOnUse">
<stop stop-color="#B82C2C"/>
<stop offset="1" stop-color="#FFDBDB"/>
</linearGradient>
<linearGradient id="paint35_linear_360_133" x1="1.38324e+06" y1="7613.33" x2="1.38324e+06" y2="2093.41" gradientUnits="userSpaceOnUse">
<stop stop-color="#B82C2C"/>
<stop offset="1" stop-color="#FFDBDB"/>
</linearGradient>
<linearGradient id="paint36_linear_360_133" x1="1.38321e+06" y1="7481.63" x2="1.38321e+06" y2="2055.49" gradientUnits="userSpaceOnUse">
<stop stop-color="#B82C2C"/>
<stop offset="1" stop-color="#FFDBDB"/>
</linearGradient>
<linearGradient id="paint37_linear_360_133" x1="1.38324e+06" y1="7323.87" x2="1.38324e+06" y2="2010.69" gradientUnits="userSpaceOnUse">
<stop stop-color="#B82C2C"/>
<stop offset="1" stop-color="#FFDBDB"/>
</linearGradient>
<linearGradient id="paint38_linear_360_133" x1="1.3832e+06" y1="7148.21" x2="1.3832e+06" y2="1961.21" gradientUnits="userSpaceOnUse">
<stop stop-color="#B82C2C"/>
<stop offset="1" stop-color="#FFDBDB"/>
</linearGradient>
<linearGradient id="paint39_linear_360_133" x1="1.38321e+06" y1="6949.26" x2="1.38321e+06" y2="1905.58" gradientUnits="userSpaceOnUse">
<stop stop-color="#B82C2C"/>
<stop offset="1" stop-color="#FFDBDB"/>
</linearGradient>
<linearGradient id="paint40_linear_360_133" x1="1.38319e+06" y1="6728.5" x2="1.38319e+06" y2="1844.2" gradientUnits="userSpaceOnUse">
<stop stop-color="#B82C2C"/>
<stop offset="1" stop-color="#FFDBDB"/>
</linearGradient>
<linearGradient id="paint41_linear_360_133" x1="1.38321e+06" y1="6500.89" x2="1.38321e+06" y2="1781.11" gradientUnits="userSpaceOnUse">
<stop stop-color="#B82C2C"/>
<stop offset="1" stop-color="#FFDBDB"/>
</linearGradient>
<linearGradient id="paint42_linear_360_133" x1="1.38321e+06" y1="6254.65" x2="1.38321e+06" y2="1713.12" gradientUnits="userSpaceOnUse">
<stop stop-color="#B82C2C"/>
<stop offset="1" stop-color="#FFDBDB"/>
</linearGradient>
<linearGradient id="paint43_linear_360_133" x1="1.38321e+06" y1="6006.71" x2="1.38321e+06" y2="1644.79" gradientUnits="userSpaceOnUse">
<stop stop-color="#B82C2C"/>
<stop offset="1" stop-color="#FFDBDB"/>
</linearGradient>
<linearGradient id="paint44_linear_360_133" x1="1.38321e+06" y1="5745.71" x2="1.38321e+06" y2="1573.05" gradientUnits="userSpaceOnUse">
<stop stop-color="#B82C2C"/>
<stop offset="1" stop-color="#FFDBDB"/>
</linearGradient>
<linearGradient id="paint45_linear_360_133" x1="1.38321e+06" y1="5485.82" x2="1.38321e+06" y2="1501.73" gradientUnits="userSpaceOnUse">
<stop stop-color="#B82C2C"/>
<stop offset="1" stop-color="#FFDBDB"/>
</linearGradient>
<linearGradient id="paint46_linear_360_133" x1="1.38314e+06" y1="5231.49" x2="1.38314e+06" y2="1432.02" gradientUnits="userSpaceOnUse">
<stop stop-color="#B82C2C"/>
<stop offset="1" stop-color="#FFDBDB"/>
</linearGradient>
<linearGradient id="paint47_linear_360_133" x1="1.38325e+06" y1="4959.16" x2="1.38325e+06" y2="1357.56" gradientUnits="userSpaceOnUse">
<stop stop-color="#B82C2C"/>
<stop offset="1" stop-color="#FFDBDB"/>
</linearGradient>
<linearGradient id="paint48_linear_360_133" x1="1.38321e+06" y1="4791.06" x2="1.38321e+06" y2="1311.31" gradientUnits="userSpaceOnUse">
<stop stop-color="#B82C2C"/>
<stop offset="1" stop-color="#FFDBDB"/>
</linearGradient>
<linearGradient id="paint49_linear_360_133" x1="1.38321e+06" y1="4584.15" x2="1.38321e+06" y2="1254.68" gradientUnits="userSpaceOnUse">
<stop stop-color="#B82C2C"/>
<stop offset="1" stop-color="#FFDBDB"/>
</linearGradient>
<linearGradient id="paint50_linear_360_133" x1="1.38324e+06" y1="4419.7" x2="1.38324e+06" y2="1209.63" gradientUnits="userSpaceOnUse">
<stop stop-color="#B82C2C"/>
<stop offset="1" stop-color="#FFDBDB"/>
</linearGradient>
<linearGradient id="paint51_linear_360_133" x1="1.38321e+06" y1="4286.68" x2="1.38321e+06" y2="1173.13" gradientUnits="userSpaceOnUse">
<stop stop-color="#B82C2C"/>
<stop offset="1" stop-color="#FFDBDB"/>
</linearGradient>
<linearGradient id="paint52_linear_360_133" x1="1.38316e+06" y1="4175.89" x2="1.38316e+06" y2="1142.68" gradientUnits="userSpaceOnUse">
<stop stop-color="#B82C2C"/>
<stop offset="1" stop-color="#FFDBDB"/>
</linearGradient>
<linearGradient id="paint53_linear_360_133" x1="1.38318e+06" y1="4081.78" x2="1.38318e+06" y2="1116.82" gradientUnits="userSpaceOnUse">
<stop stop-color="#B82C2C"/>
<stop offset="1" stop-color="#FFDBDB"/>
</linearGradient>
<linearGradient id="paint54_linear_360_133" x1="1.38317e+06" y1="4005.29" x2="1.38317e+06" y2="1095.77" gradientUnits="userSpaceOnUse">
<stop stop-color="#B82C2C"/>
<stop offset="1" stop-color="#FFDBDB"/>
</linearGradient>
<linearGradient id="paint55_linear_360_133" x1="1.38319e+06" y1="4007.63" x2="1.38319e+06" y2="1095.59" gradientUnits="userSpaceOnUse">
<stop stop-color="#B82C2C"/>
<stop offset="1" stop-color="#FFDBDB"/>
</linearGradient>
<linearGradient id="paint56_linear_360_133" x1="1.38325e+06" y1="4111.95" x2="1.38325e+06" y2="1122.35" gradientUnits="userSpaceOnUse">
<stop stop-color="#B82C2C"/>
<stop offset="1" stop-color="#FFDBDB"/>
</linearGradient>
<linearGradient id="paint57_linear_360_133" x1="1.38322e+06" y1="4220.01" x2="1.38322e+06" y2="1150.22" gradientUnits="userSpaceOnUse">
<stop stop-color="#B82C2C"/>
<stop offset="1" stop-color="#FFDBDB"/>
</linearGradient>
<linearGradient id="paint58_linear_360_133" x1="1.38321e+06" y1="4330.01" x2="1.38321e+06" y2="1178.72" gradientUnits="userSpaceOnUse">
<stop stop-color="#B82C2C"/>
<stop offset="1" stop-color="#FFDBDB"/>
</linearGradient>
<linearGradient id="paint59_linear_360_133" x1="1.38316e+06" y1="4442.95" x2="1.38316e+06" y2="1208.09" gradientUnits="userSpaceOnUse">
<stop stop-color="#B82C2C"/>
<stop offset="1" stop-color="#FFDBDB"/>
</linearGradient>
<linearGradient id="paint60_linear_360_133" x1="1.38317e+06" y1="4547.88" x2="1.38317e+06" y2="1235.44" gradientUnits="userSpaceOnUse">
<stop stop-color="#B82C2C"/>
<stop offset="1" stop-color="#FFDBDB"/>
</linearGradient>
<linearGradient id="paint61_linear_360_133" x1="1.3832e+06" y1="4650.35" x2="1.3832e+06" y2="1262.23" gradientUnits="userSpaceOnUse">
<stop stop-color="#B82C2C"/>
<stop offset="1" stop-color="#FFDBDB"/>
</linearGradient>
<linearGradient id="paint62_linear_360_133" x1="1.3832e+06" y1="4744.94" x2="1.3832e+06" y2="1286.99" gradientUnits="userSpaceOnUse">
<stop stop-color="#B82C2C"/>
<stop offset="1" stop-color="#FFDBDB"/>
</linearGradient>
<linearGradient id="paint63_linear_360_133" x1="1.38321e+06" y1="4831.66" x2="1.38321e+06" y2="1309.74" gradientUnits="userSpaceOnUse">
<stop stop-color="#B82C2C"/>
<stop offset="1" stop-color="#FFDBDB"/>
</linearGradient>
<linearGradient id="paint64_linear_360_133" x1="1.3832e+06" y1="4914.89" x2="1.3832e+06" y2="1331.65" gradientUnits="userSpaceOnUse">
<stop stop-color="#B82C2C"/>
<stop offset="1" stop-color="#FFDBDB"/>
</linearGradient>
<linearGradient id="paint65_linear_360_133" x1="1.38321e+06" y1="4977.46" x2="1.38321e+06" y2="1348.11" gradientUnits="userSpaceOnUse">
<stop stop-color="#B82C2C"/>
<stop offset="1" stop-color="#FFDBDB"/>
</linearGradient>
<linearGradient id="paint66_linear_360_133" x1="1.38321e+06" y1="5031.91" x2="1.38321e+06" y2="1362.49" gradientUnits="userSpaceOnUse">
<stop stop-color="#B82C2C"/>
<stop offset="1" stop-color="#FFDBDB"/>
</linearGradient>
<linearGradient id="paint67_linear_360_133" x1="1.38317e+06" y1="5065.06" x2="1.38317e+06" y2="1371.25" gradientUnits="userSpaceOnUse">
<stop stop-color="#B82C2C"/>
<stop offset="1" stop-color="#FFDBDB"/>
</linearGradient>
<linearGradient id="paint68_linear_360_133" x1="1.38325e+06" y1="5037.44" x2="1.38325e+06" y2="1363.71" gradientUnits="userSpaceOnUse">
<stop stop-color="#B82C2C"/>
<stop offset="1" stop-color="#FFDBDB"/>
</linearGradient>
</defs>
</svg>
