<svg width="1920" height="573" viewBox="0 0 1920 573" fill="none" xmlns="http://www.w3.org/2000/svg">
<g clip-path="url(#clip0_360_416)" filter="url(#filter0_f_360_416)">
<path d="M1918.93 334.192C1279.75 334.192 640.567 334.192 1.38477 334.192" stroke="url(#paint0_linear_360_416)" stroke-miterlimit="10"/>
<path d="M1918.93 343.162C1595.27 343.096 1271.76 344.699 948.174 346.514C808.166 347.304 667.2 347.044 527.206 345.38C351.963 343.301 176.641 345.26 1.43809 343.162" stroke="url(#paint1_linear_360_416)" stroke-miterlimit="10"/>
<path d="M1918.93 352C1827.22 352 1735.49 351.68 1643.79 351.837C1561.84 351.976 1480.08 354.984 1398.16 355.502C1245.55 356.467 1092.98 355.345 940.384 356.485C804.944 357.498 668.105 360.18 532.759 356.087C453.873 353.676 375.799 352.578 296.847 351.584C198.306 350.342 99.8855 353.712 1.38477 352" stroke="url(#paint2_linear_360_416)" stroke-miterlimit="10"/>
<path d="M1918.93 360.717C1828.54 360.717 1737.91 360.029 1647.55 360.771C1562.63 361.47 1478.2 366.371 1393.35 367.631C1240.45 369.904 1088.75 363.411 936.016 364.569C801.615 365.569 669.117 373.696 534.569 366.425C455.923 362.175 379.714 358.848 300.496 357.877C200.623 356.672 101.244 362.537 1.38477 360.717" stroke="url(#paint3_linear_360_416)" stroke-miterlimit="10"/>
<path d="M1918.93 369.265C1830.18 369.265 1740.77 368.168 1652.09 369.681C1563.4 371.194 1475.98 378.157 1387.56 380.406C1307.18 382.449 1227.94 381.901 1147.98 377.452C1076.33 373.461 1006.73 370.579 934.485 371.013C871.166 371.399 811.841 375.752 749.308 379.809C677.746 384.457 604.067 382.287 533.171 376.367C455.138 369.844 381.539 363.605 301.854 362.893C201.342 361.989 101.963 370.827 1.38477 369.265" stroke="url(#paint4_linear_360_416)" stroke-miterlimit="10"/>
<path d="M1918.93 377.693C1832.1 377.693 1743.94 376.216 1657.25 378.579C1564.63 381.099 1473.57 390.226 1381.14 393.65C1301.78 396.628 1221.89 394.587 1143.78 387.586C1074.04 381.424 1006.62 375.921 935.337 376.174C869.328 376.409 809.604 383.974 745.526 390.093C672.793 397.038 600.818 394.404 529.19 385.982C452.421 376.939 381.552 367.197 301.321 366.938C200.637 366.607 102.242 378.706 1.38477 377.687" stroke="url(#paint5_linear_360_416)" stroke-miterlimit="10"/>
<path d="M1918.93 385.988C1834.15 386.024 1747.29 384.18 1662.79 387.405C1565.8 391.076 1471.04 402.404 1374.4 407.136C1293.31 411.103 1218.36 407.413 1140.14 397.448C1073.17 388.912 1008.31 380.364 938.067 380.346C868.609 380.346 806.821 391.709 740.906 400.004C665.815 409.451 596.57 406.702 523.197 395.29C448.52 383.679 379.954 369.971 299.284 370.272C198.746 370.682 102.202 386.265 1.38477 385.988" stroke="url(#paint6_linear_360_416)" stroke-miterlimit="10"/>
<path d="M1918.93 394.15C1836.29 394.205 1750.73 392.155 1668.59 396.122C1567.14 401.017 1468.84 414.533 1367.76 420.633C1285.53 425.595 1214.15 420.29 1137.2 407.015C1073.71 396.061 1011.35 384.191 942.248 383.818C869.222 383.42 803.386 399.027 735.845 409.535C657.852 421.67 591.257 419.09 515.887 404.302C444.112 390.22 377.184 372.141 296.168 373.153C195.989 374.407 101.99 393.572 1.4116 394.15" stroke="url(#paint7_linear_360_416)" stroke-miterlimit="10"/>
<path d="M1918.93 402.18C1838.41 402.253 1754.18 400.07 1674.26 404.694C1568.47 410.813 1466.62 426.451 1361.33 433.914C1277.43 439.864 1210.11 433.052 1134.78 416.281C1075.2 403.018 1015.35 387.7 947.215 386.892C870.62 385.994 799.497 406.268 730.399 418.728C694.205 425.221 656.054 431.304 616.598 429.905C577.981 428.531 541.414 421.17 507.644 413.026C439.571 396.646 373.256 374.1 292.253 375.824C192.514 377.952 101.657 400.685 1.37144 402.162" stroke="url(#paint8_linear_360_416)" stroke-miterlimit="10"/>
<path d="M1918.87 410.072C1840.3 410.162 1757.45 407.925 1679.71 413.086C1569.89 420.356 1464.85 438.013 1355.65 446.767C1269.84 453.651 1206.4 445.458 1133.11 425.233C1077.54 409.897 1020.2 391.154 952.675 389.882C872.778 388.381 795.543 413.423 725.126 427.596C688.24 435.023 647.559 442.854 606.358 441.13C567.741 439.514 531.561 430.689 499.269 421.538C434.884 403.284 369.248 376.186 288.046 378.603C188.733 381.569 101.378 407.757 1.35884 410.072" stroke="url(#paint9_linear_360_416)" stroke-miterlimit="10"/>
<path d="M1918.85 417.824C1842.16 417.933 1760.53 415.696 1684.78 421.236C1571.38 429.537 1463.51 449.057 1350.94 458.98C1308.07 462.754 1267.45 464.936 1225.46 458.317C1191.25 452.922 1161.15 443.451 1132.12 433.878C1080.19 416.763 1025.37 394.814 958.001 393.095C875.174 390.979 791.734 420.561 720.172 436.181C682.647 444.373 639.462 453.862 596.69 451.855C557.899 450.046 522.199 439.876 491.291 429.833C430.329 410.035 365.479 378.7 283.837 381.732C184.883 385.415 101.15 414.846 1.30469 417.854" stroke="url(#paint10_linear_360_416)" stroke-miterlimit="10"/>
<path d="M1918.84 425.45C1843.76 425.565 1763.24 423.34 1689.23 429.133C1572.95 438.236 1463.04 459.432 1347.62 470.289C1304.61 474.335 1264.1 476.842 1222.33 469.331C1188.44 463.2 1159.56 452.68 1131.94 442.167C1083.05 423.581 1030.52 398.877 962.822 396.797C919.557 395.465 876.053 405.683 838.687 414.334C797.234 423.931 757.378 434.866 715.937 444.476C677.853 453.301 632.577 464.128 588.367 461.868C549.297 459.872 514.155 448.666 484.353 437.875C426.188 416.775 362.563 381.895 280.135 385.427C181.354 389.647 101.124 422.008 1.29151 425.474" stroke="url(#paint11_linear_360_416)" stroke-miterlimit="10"/>
<path d="M1918.83 432.938C1845.09 433.052 1765.42 430.822 1692.83 436.723C1574.51 446.339 1463.31 468.982 1345.97 480.514C1303.16 484.734 1262.34 487.429 1221 479.381C1187.15 472.791 1159.13 461.368 1132.51 450.131C1085.66 430.363 1035.12 403.609 966.59 401.3C922.14 399.817 877.371 410.886 839.419 420.037C796.581 430.375 755.527 442.143 712.688 452.494C674.071 461.832 627.464 473.509 582.068 471.128C542.586 469.054 508.043 457.148 479.053 445.736C422.686 423.557 361.005 386.175 277.258 389.943C178.478 394.386 101.31 429.345 1.27801 432.913" stroke="url(#paint12_linear_360_416)" stroke-miterlimit="10"/>
<path d="M1918.8 440.292C1846.11 440.388 1766.93 438.116 1695.41 443.969C1576.08 453.735 1464.58 477.566 1346.33 489.412C1304.11 493.632 1262.53 496.381 1221.77 488.278C1187.64 481.496 1160.01 469.458 1133.88 457.744C1087.78 437.043 1038.73 409.215 968.761 406.973C923.326 405.514 878.437 416.697 839.953 426.264C796.209 437.115 754.395 449.485 710.665 460.349C671.555 470.066 624.748 481.93 578.421 479.567C538.472 477.53 504.515 465.406 475.885 453.506C419.956 430.267 361.218 391.938 275.515 395.67C176.481 399.98 101.644 437.091 1.19881 440.28" stroke="url(#paint13_linear_360_416)" stroke-miterlimit="10"/>
<path d="M1918.79 447.526C1846.36 447.731 1767.43 445.175 1696.22 451.143C1577.7 461.096 1467.63 485.638 1350.31 497.761C1308.21 502.107 1266.66 504.712 1225.93 496.706C1191.3 489.888 1163.13 477.704 1136.61 465.846C1089.66 444.843 1040.08 416.66 969.2 414.032C923.445 412.338 878.822 423.382 840.165 433.1C796.355 444.12 754.621 456.731 710.824 467.757C671.528 477.656 624.96 489.357 578.287 486.825C538.072 484.643 504.315 472.496 475.632 460.463C419.477 436.898 361.857 399.076 275.474 402.59C176.161 406.617 102.096 444.741 1.23829 447.526" stroke="url(#paint14_linear_360_416)" stroke-miterlimit="10"/>
<path d="M1918.77 454.598C1846.04 454.971 1767.35 451.746 1695.88 458.13C1579.47 468.529 1471.88 493.475 1356.7 506.026C1314.09 510.674 1273.64 513.092 1232.32 505.032C1197.07 498.165 1167.89 486.108 1140.41 474.353C1091.9 453.579 1040.23 425.113 969.347 421.526C923.872 419.223 879.089 430.297 840.765 440.009C797.487 450.975 756.379 463.598 713.115 474.576C673.898 484.529 627.331 496.14 580.724 493.131C540.628 490.545 506.379 478.223 477.296 466.323C420.848 443.234 361.564 406.123 276.22 409.535C176.667 413.52 102.362 451.861 1.26509 454.598" stroke="url(#paint15_linear_360_416)" stroke-miterlimit="10"/>
<path d="M1918.75 461.548C1845.6 461.994 1767.13 457.871 1695.22 464.629C1581.18 475.347 1476.39 500.619 1363.64 513.459C1320.67 518.366 1281.16 520.555 1239.37 512.597C1203.58 505.779 1173.23 494.035 1144.72 482.37C1094.59 461.874 1040.54 433.51 969.72 429.055C924.657 426.216 880.221 437.061 842.243 446.73C799.697 457.582 759.455 470.127 716.936 480.972C677.84 490.943 631.712 502.222 585.318 498.786C545.183 495.808 510.321 483.431 480.585 471.658C423.392 449.051 362.163 412.869 277.472 416.233C177.48 420.199 102.762 458.787 1.22508 461.512" stroke="url(#paint16_linear_360_416)" stroke-miterlimit="10"/>
<path d="M1918.72 468.366C1845.07 468.794 1766.63 463.58 1694.22 470.681C1582.79 481.599 1481.05 507.129 1370.95 520.193C1327.81 525.311 1289.04 527.234 1246.91 519.506C1210.48 512.826 1179 501.42 1149.38 489.966C1097.16 469.837 1041.21 441.884 970.199 436.609C925.669 433.305 882.018 443.68 844.413 453.283C802.8 463.917 763.583 476.354 721.996 487C683.046 496.977 637.811 507.696 591.696 503.88C551.375 500.534 515.794 488.206 485.166 476.595C426.827 454.489 363.415 419.416 279.176 422.761C178.572 426.758 103.281 465.605 1.13188 468.348" stroke="url(#paint17_linear_360_416)" stroke-miterlimit="10"/>
<path d="M1918.71 475.052C1844.45 475.39 1766.05 468.921 1692.98 476.33C1584.35 487.344 1485.85 513.104 1378.58 526.24C1335.46 531.533 1297.23 533.178 1254.89 525.788C1217.8 519.313 1185.22 508.305 1154.39 497.201C1099.79 477.53 1042.15 450.245 970.865 444.211C884.841 436.922 797.912 474.853 728.202 492.734C689.398 502.693 645.387 512.67 599.673 508.492C559.031 504.772 522.704 492.565 491.025 481.129C431.208 459.541 365.426 425.722 281.4 429.085C180.049 433.137 104.04 472.267 1.15821 475.052" stroke="url(#paint18_linear_360_416)" stroke-miterlimit="10"/>
<path d="M1918.68 481.599C1843.77 481.786 1765.35 473.931 1691.53 481.599C1585.81 492.619 1490.71 518.499 1386.43 531.677C1343.45 537.103 1305.6 538.453 1263.13 531.49C1225.37 525.287 1191.65 514.768 1159.61 504.013C1102.64 484.903 1043.28 458.528 971.637 451.746C886.918 443.741 803.732 480.574 735.312 498.165C697.481 507.877 653.377 517.667 608.914 512.664C567.634 508.022 531.267 496.767 497.79 485.313C436.255 464.273 367.942 431.822 283.916 435.222C181.701 439.352 104.879 478.778 1.13152 481.641" stroke="url(#paint19_linear_360_416)" stroke-miterlimit="10"/>
<path d="M1918.65 488.019C1843.04 488.019 1764.54 478.657 1689.89 486.608C1587.18 497.55 1495.57 523.539 1394.36 536.645C1218.59 559.426 1126.89 475.323 972.49 459.227C889.263 450.54 810.284 486.048 743.103 503.283C705.445 512.929 663.045 521.712 619.142 516.425C577.342 511.391 540.123 500.383 505.3 489.146C441.848 468.65 370.886 437.676 286.687 441.13C183.525 445.35 105.798 485.083 1.09197 488.019" stroke="url(#paint20_linear_360_416)" stroke-miterlimit="10"/>
<path d="M1918.63 494.301C1842.28 494.048 1763.65 483.148 1688.11 491.335C1588.46 502.132 1500.35 528.181 1402.3 541.172C1230.16 563.972 1125.32 483.902 973.408 466.655C891.619 457.359 817.381 491.293 751.425 508.197C713.927 517.806 673.378 525.432 630.1 519.904C587.741 514.478 549.577 503.748 513.356 492.746C447.867 472.852 374.201 443.367 289.643 446.899C185.469 451.246 106.77 491.269 1.05181 494.301" stroke="url(#paint21_linear_360_416)" stroke-miterlimit="10"/>
<path d="M1918.6 500.45C1841.5 499.937 1762.71 487.446 1686.22 495.838C1589.62 506.436 1505.11 532.515 1410.1 545.331C1241.61 568.065 1123.8 492.372 974.353 473.973C894.03 464.086 824.838 496.35 760.041 512.923C722.675 522.478 684.138 528.88 641.526 523.171C598.581 517.39 559.431 506.894 521.772 496.164C454.179 476.873 377.797 448.925 292.812 452.536C187.613 457.015 107.875 497.339 1.10508 500.474" stroke="url(#paint22_linear_360_416)" stroke-miterlimit="10"/>
<path d="M1918.57 506.466C1840.73 505.688 1761.71 491.6 1684.21 500.166C1590.59 510.523 1509.58 536.614 1417.63 549.214C1252.72 571.814 1122.31 500.667 975.313 481.165C896.44 470.699 832.442 501.246 768.75 517.498C731.544 526.993 694.885 532.135 652.978 526.221C609.434 520.072 569.259 509.842 530.189 499.377C460.478 480.689 381.406 454.284 295.888 457.985C189.584 462.591 108.861 503.199 1.02539 506.466" stroke="url(#paint23_linear_360_416)" stroke-miterlimit="10"/>
<path d="M1918.55 512.344C1839.98 511.307 1760.69 495.657 1682.3 504.368C1591.56 514.454 1513.97 540.539 1424.95 552.891C1263.3 575.317 1120.81 508.799 976.191 488.206C898.757 477.174 839.965 506.002 777.312 521.965C740.266 531.4 705.404 535.282 664.297 529.199C620.153 522.677 578.966 512.681 538.498 502.505C466.736 484.456 385.027 459.541 298.924 463.321C191.555 468.053 109.833 508.992 0.945384 512.332" stroke="url(#paint24_linear_360_416)" stroke-miterlimit="10"/>
<path d="M1918.52 518.095C1839.17 516.811 1759.7 499.66 1680.34 508.492C1592.34 518.288 1518.02 544.355 1431.77 556.442C1273.22 578.663 1119.33 516.763 977.137 495.079C900.994 483.468 847.463 510.698 785.675 526.342C748.749 535.686 715.711 538.399 675.296 532.141C630.58 525.245 588.394 515.449 546.608 505.568C472.875 488.14 388.65 464.689 301.947 468.566C193.566 473.418 110.885 514.653 0.999002 518.095" stroke="url(#paint25_linear_360_416)" stroke-miterlimit="10"/>
<path d="M1918.49 523.707C1838.39 522.212 1758.7 503.651 1678.45 512.573C1592.96 522.074 1521.72 548.141 1438.05 559.944C1356.89 571.398 1270.55 558.467 1194.74 544.65C1121.63 531.321 1052.13 513.839 977.935 501.752C902.751 489.502 854.8 515.448 793.478 530.688C712.049 550.914 628.649 525.263 554.117 508.63C478.601 491.799 392.005 469.747 304.73 473.708C195.39 478.663 111.803 520.187 0.945 523.713" stroke="url(#paint26_linear_360_416)" stroke-miterlimit="10"/>
<path d="M1918.47 529.193C1837.62 527.524 1757.91 507.678 1676.64 516.666C1593.43 525.878 1525.02 551.927 1443.61 563.471C1363.19 574.889 1274.57 562.488 1198.4 549.835C1123.82 537.44 1052.83 521.073 978.642 508.196C904.457 495.32 861.125 519.994 800.59 535.017C721.011 554.76 634.136 527.18 560.896 511.717C483.795 495.44 395.002 474.727 307.247 478.741C197.055 483.787 112.643 525.588 0.972275 529.193" stroke="url(#paint27_linear_360_416)" stroke-miterlimit="10"/>
<path d="M1918.44 534.541C1836.84 532.732 1757.19 511.777 1674.98 520.82C1593.75 529.748 1527.86 555.785 1448.6 567.106C1368.8 578.47 1278.15 566.576 1201.64 554.971C1125.73 543.451 1053.32 528.066 979.254 514.4C944.312 507.955 918.704 507.69 884.921 516.003C857.463 522.761 834.239 532.575 806.821 539.382C770.241 548.472 741.105 548.219 702.794 541.461C656.759 533.329 611.91 523.979 566.741 514.894C488.348 499.172 397.624 479.664 309.47 483.715C198.519 488.815 113.401 530.894 0.931765 534.541" stroke="url(#paint28_linear_360_416)" stroke-miterlimit="10"/>
<path d="M1918.41 539.761C1836.05 537.953 1756.65 515.997 1673.47 525.07C1593.85 533.757 1530.22 559.89 1452.56 570.922C1373.16 582.202 1280.85 570.802 1204.03 560.071C1127.21 549.341 1053.45 534.752 979.627 520.284C945.51 513.598 920.569 512.652 887.078 520.923C860.526 527.482 838.368 537.163 811.881 543.77C775.501 552.849 746.818 551.885 709.173 544.904C662.912 536.325 617.37 526.993 571.349 518.162C491.971 502.934 399.476 484.511 311.189 488.574C199.625 493.704 113.934 536.036 0.918727 539.707" stroke="url(#paint29_linear_360_416)" stroke-miterlimit="10"/>
<path d="M1918.39 544.837C1835.25 543.077 1756.3 520.361 1672.19 529.458C1593.76 537.952 1532.11 564.285 1455.52 574.991C1376.24 586.089 1282.93 575.208 1205.63 565.243C1127.7 555.206 1053.31 541.226 979.787 525.962C946.363 519.029 921.701 517.57 888.463 525.841C862.63 532.262 841.364 541.883 815.61 548.364C779.403 557.472 750.746 555.996 713.674 548.749C667.346 539.707 621.272 530.351 574.545 521.706C494.647 506.918 400.608 489.448 312.387 493.481C200.384 498.605 114.281 541.178 0.785716 544.837" stroke="url(#paint30_linear_360_416)" stroke-miterlimit="10"/>
<path d="M1918.36 549.786C1834.47 548.189 1756.19 524.925 1671.16 534.046C1593.54 542.372 1533.21 568.818 1457.55 579.398C1378.52 590.442 1283.98 579.796 1206.48 570.452C1127.76 560.957 1053.03 547.357 979.854 531.267C946.976 524.033 922.181 522.285 889.116 530.61C863.815 536.982 843.215 546.61 817.954 553.042C781.88 562.229 752.824 560.493 716.191 552.915C669.957 543.354 623.536 533.932 576.29 525.432C496.152 511.018 401.021 494.331 313.16 498.304C200.89 503.374 114.574 546.175 0.812504 549.786" stroke="url(#paint31_linear_360_416)" stroke-miterlimit="10"/>
<path d="M1918.32 554.609C1834 553.174 1756.27 529.657 1670.72 538.863C1593.36 547.182 1533.4 573.605 1457.98 584.124C1379.02 595.132 1284.06 584.269 1206.54 575.124C1127.53 565.804 1053.04 552.306 979.774 536.144C947.015 528.91 921.874 527.403 889.036 535.674C863.908 542.004 843.441 551.547 818.313 557.894C782.359 566.973 752.771 565.285 716.484 557.491C670.449 547.604 623.975 538.109 576.529 529.693C496.778 515.545 400.408 499.045 313.226 503.168C201.116 508.461 114.241 550.54 0.772293 554.591" stroke="url(#paint32_linear_360_416)" stroke-miterlimit="10"/>
<path d="M1918.29 559.354C1833.79 557.991 1756.29 534.318 1670.53 543.632C1593.3 552.023 1533.03 578.223 1457.55 588.676C1378.6 599.612 1283.85 588.272 1206.44 579.067C1127.69 569.699 1053.52 556.225 979.747 540.828C909.917 526.258 875.307 548.665 817.794 562.639C781.84 571.374 752.065 569.783 716.111 561.958C670.276 551.981 623.882 542.51 576.45 534.191C497.164 520.29 399.543 503.711 312.987 508.184C201.356 513.96 113.415 554.326 0.70611 559.263" stroke="url(#paint33_linear_360_416)" stroke-miterlimit="10"/>
<path d="M1918.27 564.026C1833.51 562.711 1756.19 538.863 1670.17 548.255C1592.94 556.695 1532.43 582.617 1456.91 592.974C1377.96 603.825 1283.49 592.052 1206.2 582.816C1127.76 573.442 1053.87 560.029 979.667 545.41C910.422 531.761 874.574 553.771 817.021 567.112C781.067 575.468 751.026 573.924 715.391 566.087C669.77 556.056 623.509 546.658 576.09 538.483C497.124 524.865 398.53 508.462 312.693 513.236C201.622 519.409 112.602 558.021 0.718754 563.742" stroke="url(#paint34_linear_360_416)" stroke-miterlimit="10"/>
<path d="M1918.24 568.613C1833.19 567.335 1755.99 543.294 1669.65 552.728C1592.51 561.156 1531.64 586.783 1456.07 597.031C1377.12 607.702 1282.96 595.633 1205.82 586.391C1127.74 577.047 1054.01 563.736 979.547 549.925C910.795 537.187 873.722 558.709 816.023 571.429C779.976 579.368 749.708 577.825 714.34 569.994C668.971 559.944 622.803 550.655 575.464 542.673C496.698 529.38 397.505 513.381 312.254 518.402C201.729 524.907 111.684 561.705 0.652399 568.131" stroke="url(#paint35_linear_360_416)" stroke-miterlimit="10"/>
<path d="M1918.21 573.122C1832.8 571.857 1755.75 547.628 1668.97 557.069C1591.9 565.448 1530.66 590.786 1455.02 600.829C1376.09 611.313 1282.41 598.972 1205.3 589.761C1127.65 580.477 1054.14 567.305 979.374 554.326C911.141 542.48 872.763 563.435 814.798 575.468C778.63 582.979 748.123 581.381 712.981 573.575C667.967 563.474 621.776 554.487 574.611 546.652C495.912 533.727 396.439 518.318 311.681 523.569C201.875 530.339 110.725 565.279 0.665531 572.315" stroke="url(#paint36_linear_360_416)" stroke-miterlimit="10"/>
<path d="M1918.17 577.548C1832.38 576.282 1755.35 551.842 1668.15 561.271C1591.14 569.584 1529.48 594.584 1453.75 604.422C1374.85 614.671 1281.57 602.138 1204.61 592.968C1127.37 583.781 1054.07 570.79 979.121 558.654C911.394 547.683 871.632 568.017 813.32 579.32C776.98 586.367 746.246 584.679 711.304 576.909C666.56 566.875 620.538 558.056 573.48 550.498C494.741 537.977 395.281 523.406 310.975 528.796C201.875 535.77 109.686 568.8 0.585821 576.384" stroke="url(#paint37_linear_360_416)" stroke-miterlimit="10"/>
<path d="M1918.15 581.876C1831.91 580.604 1754.9 555.953 1667.2 565.31C1590.25 573.52 1528.15 598.158 1452.4 607.762C1373.54 617.757 1280.75 605.073 1203.85 595.982C1127.18 586.94 1053.91 574.153 978.881 562.88C911.634 552.77 870.406 572.411 811.695 582.949C775.155 589.508 744.181 587.693 709.386 579.934C664.949 569.997 619.133 561.376 572.228 554.127C493.355 542.07 394.202 528.47 310.256 533.986C201.915 541.099 108.728 572.182 0.612481 580.23" stroke="url(#paint38_linear_360_416)" stroke-miterlimit="10"/>
<path d="M1918.12 586.12C1831.4 584.818 1754.33 559.932 1666.12 569.24C1589.22 577.306 1526.67 601.553 1450.84 610.897C1372.03 620.603 1279.75 607.828 1203.02 598.84C1126.89 589.918 1053.69 577.421 978.641 567.016C911.86 557.762 869.088 576.661 809.937 586.391C773.171 592.42 741.957 590.466 707.268 582.774C663.126 572.954 617.501 564.564 570.736 557.666C491.611 546.073 393.017 533.624 309.377 539.237C201.822 546.471 107.675 575.534 0.572269 583.998" stroke="url(#paint39_linear_360_416)" stroke-miterlimit="10"/>
<path d="M1918.09 590.268C1830.86 588.929 1753.8 563.803 1664.94 572.984C1588.09 580.93 1525.05 604.766 1449.13 613.821C1370.39 623.207 1278.68 610.39 1202.06 601.517C1126.47 592.757 1053.33 580.574 978.349 571.049C912.02 562.609 867.61 580.737 807.993 589.629C770.974 595.145 739.521 592.98 704.912 585.409C661.077 575.738 615.669 567.604 569.086 561.078C489.654 550.016 391.859 538.851 308.459 544.53C201.702 551.764 106.664 578.832 0.572733 587.645" stroke="url(#paint40_linear_360_416)" stroke-miterlimit="10"/>
<path d="M1918.07 594.313C1830.29 592.926 1753.14 567.558 1663.73 576.613C1586.84 584.372 1523.3 607.798 1447.3 616.539C1368.64 625.582 1277.57 612.772 1200.94 604.03C1125.91 595.458 1052.83 583.624 977.922 574.985C912.047 567.384 865.906 584.667 805.796 592.679C768.51 597.646 736.831 595.271 702.248 587.736C658.733 578.234 613.551 570.385 567.168 564.267C487.43 553.771 390.62 543.981 307.407 549.726C201.489 557.003 105.598 581.96 0.519047 591.075" stroke="url(#paint41_linear_360_416)" stroke-miterlimit="10"/>
<path d="M1918.04 598.237C1829.71 596.808 1752.48 571.199 1662.27 580.103C1585.51 587.687 1521.44 610.655 1445.35 619.065C1366.79 627.752 1276.34 614.972 1199.89 606.405C1125.4 598.038 1052.37 586.596 977.63 578.837C912.167 572.037 864.201 588.483 803.625 595.572C766.073 599.979 734.141 597.381 699.545 589.899C656.359 580.588 611.419 573.045 565.264 567.359C485.006 557.473 389.395 549.214 306.315 554.947C201.223 562.181 104.573 585.041 0.49268 594.415" stroke="url(#paint42_linear_360_416)" stroke-miterlimit="10"/>
<path d="M1918.01 602.095C1829.05 600.582 1751.67 574.726 1660.82 583.461C1584.07 590.834 1519.44 613.344 1443.3 621.404C1364.8 629.705 1275.04 616.997 1198.69 608.576C1124.76 600.419 1051.79 589.411 977.243 582.533C912.166 576.504 862.31 592.064 801.282 598.207C763.45 602.035 731.278 599.159 696.629 591.78C653.771 582.678 609.08 575.461 563.173 570.229C482.423 560.993 388.143 554.32 305.169 560.059C200.903 567.263 103.561 587.94 0.465824 597.531" stroke="url(#paint43_linear_360_416)" stroke-miterlimit="10"/>
<path d="M1917.99 605.827C1828.38 604.235 1750.87 578.132 1659.26 586.675C1582.58 593.83 1517.43 615.864 1441.16 623.557C1362.76 631.466 1273.69 618.848 1197.47 610.614C1124.07 602.686 1051.19 592.142 976.884 586.144C912.14 580.917 860.353 595.536 798.858 600.763C760.76 604 728.362 600.841 693.593 593.529C651.069 584.653 606.637 577.784 561.002 573.032C479.773 564.496 386.932 559.48 303.998 565.195C200.543 572.315 102.589 590.81 0.439285 600.594" stroke="url(#paint44_linear_360_416)" stroke-miterlimit="10"/>
<path d="M1917.96 609.444C1827.73 607.768 1750.01 581.418 1657.71 589.755C1581 596.682 1515.31 618.227 1438.95 625.54C1360.66 633.033 1272.29 620.542 1196.12 612.5C1123.24 604.802 1050.47 594.765 976.404 589.641C911.94 585.186 858.182 598.852 796.248 603.114C757.87 605.761 725.245 602.3 690.343 595.096C648.15 586.45 603.979 579.936 558.632 575.673C476.856 567.878 385.6 564.574 302.693 570.247C200.157 577.276 101.616 593.541 0.412601 603.488" stroke="url(#paint45_linear_360_416)" stroke-miterlimit="10"/>
<path d="M1917.93 612.946C1827.05 611.18 1749.14 584.613 1656.07 592.697C1579.37 599.382 1513.13 620.44 1436.67 627.354C1358.49 634.408 1270.84 622.073 1194.77 614.236C1122.38 606.779 1049.74 597.278 975.992 593.022C911.754 589.315 856.039 602.011 793.705 605.308C755.088 607.352 722.21 603.578 687.175 596.465C645.309 588.064 601.405 581.923 556.369 578.168C474.074 571.157 384.429 569.596 301.521 575.226C199.731 582.135 100.805 596.151 0.479549 606.243" stroke="url(#paint46_linear_360_416)" stroke-miterlimit="10"/>
<path d="M1917.91 616.323C1826.36 614.466 1748.22 587.627 1654.4 595.5C1577.72 601.945 1510.89 622.496 1434.34 628.982C1356.29 635.614 1269.38 623.418 1193.31 615.798C1121.41 608.564 1048.92 599.648 975.486 596.254C911.368 593.288 853.748 604.995 790.935 607.322C752.038 608.763 719.027 604.658 683.659 597.64C642.116 589.49 598.48 583.73 553.771 580.496C366.012 566.455 182.02 590.141 0.292895 608.829" stroke="url(#paint47_linear_360_416)" stroke-miterlimit="10"/>
<path d="M1917.88 619.59C1825.65 617.631 1747.29 590.557 1652.7 598.183C1576.01 604.368 1508.62 624.407 1431.97 630.513C1354.05 636.723 1267.87 624.678 1191.97 617.281C1120.47 610.294 1048.21 601.957 975.1 599.443C910.995 597.218 851.564 607.883 788.285 609.269C749.162 610.113 715.871 605.652 680.303 598.738C639.236 590.702 595.625 585.577 551.348 582.744C368.369 571.031 177.52 592.775 0.333012 611.337" stroke="url(#paint48_linear_360_416)" stroke-miterlimit="10"/>
<path d="M1920 323.808C1280.82 323.808 641.635 323.808 2.45264 323.808" stroke="url(#paint49_linear_360_416)" stroke-miterlimit="10"/>
<path d="M1920 314.838C1596.33 314.904 1272.83 313.301 949.242 311.486C809.234 310.697 668.268 310.956 528.273 312.62C353.031 314.699 177.709 312.74 2.50596 314.838" stroke="url(#paint50_linear_360_416)" stroke-miterlimit="10"/>
<path d="M1920 306C1828.29 306 1736.55 306.32 1644.86 306.163C1562.91 306.024 1481.15 303.016 1399.23 302.498C1246.62 301.533 1094.04 302.655 941.452 301.515C806.012 300.502 669.173 297.82 533.826 301.913C454.941 304.324 376.867 305.422 297.915 306.416C199.374 307.658 100.953 304.288 2.45264 306" stroke="url(#paint51_linear_360_416)" stroke-miterlimit="10"/>
<path d="M1920 297.283C1829.61 297.283 1738.98 297.971 1648.61 297.229C1563.7 296.53 1479.27 291.629 1394.42 290.369C1241.52 288.096 1089.82 294.589 937.084 293.431C802.682 292.43 670.185 284.304 535.637 291.574C456.991 295.824 380.782 299.152 301.563 300.123C201.691 301.328 102.312 295.463 2.45264 297.283" stroke="url(#paint52_linear_360_416)" stroke-miterlimit="10"/>
<path d="M1920 288.735C1831.25 288.735 1741.84 289.832 1653.15 288.319C1564.47 286.806 1477.05 279.843 1388.63 277.594C1308.25 275.551 1229 276.099 1149.05 280.548C1077.4 284.539 1007.79 287.421 935.552 286.987C872.233 286.601 812.909 282.248 750.376 278.191C678.814 273.543 605.135 275.713 534.239 281.633C456.206 288.156 382.606 294.395 302.922 295.107C202.41 296.011 103.031 287.173 2.45264 288.735" stroke="url(#paint53_linear_360_416)" stroke-miterlimit="10"/>
<path d="M1920 280.307C1833.16 280.307 1745.01 281.784 1658.32 279.421C1565.69 276.901 1474.64 267.774 1382.21 264.35C1302.85 261.372 1222.96 263.413 1144.84 270.415C1075.11 276.576 1007.69 282.08 936.405 281.826C870.396 281.591 810.672 274.026 746.594 267.907C673.861 260.962 601.886 263.596 530.258 272.018C453.489 281.061 382.62 290.803 302.389 291.062C201.704 291.394 103.31 279.294 2.45264 280.313" stroke="url(#paint54_linear_360_416)" stroke-miterlimit="10"/>
<path d="M1920 272.012C1835.22 271.976 1748.35 273.82 1663.86 270.595C1566.87 266.924 1472.11 255.596 1375.47 250.864C1294.37 246.897 1219.43 250.587 1141.21 260.552C1074.24 269.088 1009.38 277.636 939.135 277.655C869.677 277.655 807.889 266.291 741.973 257.996C666.883 248.549 597.638 251.298 524.265 262.71C449.587 274.321 381.022 288.029 300.352 287.728C199.813 287.318 103.27 271.735 2.45264 272.012" stroke="url(#paint55_linear_360_416)" stroke-miterlimit="10"/>
<path d="M1920 263.85C1837.36 263.795 1751.8 265.845 1669.65 261.878C1568.21 256.983 1469.91 243.467 1368.83 237.367C1286.6 232.405 1215.22 237.71 1138.27 250.985C1074.77 261.939 1012.41 273.809 943.316 274.182C870.289 274.58 804.454 258.973 736.913 248.465C658.92 236.33 592.325 238.91 516.955 253.698C445.18 267.78 378.252 285.859 297.236 284.847C197.057 283.593 103.057 264.428 2.47947 263.85" stroke="url(#paint56_linear_360_416)" stroke-miterlimit="10"/>
<path d="M1920 255.82C1839.48 255.747 1755.25 257.929 1675.33 253.306C1569.54 247.187 1467.69 231.549 1362.39 224.086C1278.5 218.136 1211.17 224.948 1135.84 241.719C1076.27 254.982 1016.42 270.3 948.283 271.108C871.688 272.006 800.565 251.732 731.467 239.271C695.273 232.779 657.122 226.696 617.666 228.095C579.048 229.469 542.482 236.83 508.712 244.974C440.639 261.354 374.324 283.9 293.321 282.176C193.582 280.048 102.724 257.315 2.43931 255.838" stroke="url(#paint57_linear_360_416)" stroke-miterlimit="10"/>
<path d="M1919.93 247.929C1841.37 247.838 1758.51 250.075 1680.77 244.914C1570.95 237.644 1465.91 219.987 1356.72 211.233C1270.91 204.349 1207.47 212.542 1134.18 232.767C1078.61 248.103 1021.27 266.846 953.743 268.118C873.845 269.619 796.611 244.577 726.194 230.404C689.308 222.977 648.627 215.146 607.426 216.87C568.809 218.486 532.629 227.311 500.337 236.462C435.952 254.717 370.316 281.814 289.113 279.397C189.8 276.431 102.445 250.243 2.42671 247.929" stroke="url(#paint58_linear_360_416)" stroke-miterlimit="10"/>
<path d="M1919.92 240.176C1843.23 240.068 1761.6 242.304 1685.85 236.764C1572.44 228.463 1464.58 208.943 1352.01 199.02C1309.14 195.246 1268.51 193.064 1226.53 199.683C1192.32 205.078 1162.22 214.549 1133.19 224.122C1081.26 241.237 1026.44 263.187 959.069 264.905C876.242 267.021 792.802 237.439 721.24 221.819C683.715 213.627 640.53 204.138 597.758 206.146C558.968 207.954 523.267 218.124 492.36 228.167C431.398 247.965 366.547 279.301 284.905 276.268C185.951 272.585 102.219 243.154 2.37288 240.146" stroke="url(#paint59_linear_360_416)" stroke-miterlimit="10"/>
<path d="M1919.91 232.55C1844.83 232.435 1764.31 234.66 1690.29 228.867C1574.02 219.764 1464.1 198.568 1348.69 187.711C1305.68 183.665 1265.17 181.158 1223.4 188.669C1189.51 194.8 1160.62 205.32 1133.01 215.833C1084.12 234.419 1031.59 259.123 963.89 261.203C920.625 262.535 877.121 252.317 839.755 243.666C798.301 234.069 758.446 223.134 717.005 213.524C678.921 204.699 633.645 193.872 589.435 196.132C550.365 198.128 515.223 209.335 485.421 220.125C427.256 241.225 363.63 276.105 281.203 272.573C182.422 268.353 102.192 235.992 2.35938 232.526" stroke="url(#paint60_linear_360_416)" stroke-miterlimit="10"/>
<path d="M1919.89 225.062C1846.16 224.948 1766.49 227.178 1693.9 221.277C1575.57 211.661 1464.38 189.018 1347.04 177.486C1304.23 173.266 1263.41 170.571 1222.07 178.619C1188.22 185.209 1160.2 196.632 1133.58 207.869C1086.73 227.637 1036.18 254.391 967.658 256.7C923.208 258.183 878.439 247.115 840.487 237.963C797.649 227.625 756.594 215.857 713.756 205.506C675.139 196.168 628.532 184.491 583.136 186.872C543.654 188.946 509.111 200.852 480.121 212.264C423.753 234.443 362.072 271.825 278.326 268.057C179.546 263.614 102.378 228.655 2.34588 225.087" stroke="url(#paint61_linear_360_416)" stroke-miterlimit="10"/>
<path d="M1919.87 217.708C1847.17 217.612 1767.99 219.884 1696.47 214.031C1577.15 204.265 1465.65 180.434 1347.4 168.588C1305.17 164.368 1263.6 161.619 1222.84 169.722C1188.71 176.504 1161.08 188.542 1134.95 200.256C1088.85 220.957 1039.79 248.785 969.829 251.027C924.394 252.486 879.505 241.303 841.02 231.736C797.276 220.885 755.463 208.515 711.733 197.651C672.623 187.934 625.816 176.07 579.488 178.433C539.539 180.47 505.583 192.594 476.953 204.494C421.024 227.733 362.286 266.062 276.582 262.33C177.549 258.02 102.712 220.909 2.26668 217.72" stroke="url(#paint62_linear_360_416)" stroke-miterlimit="10"/>
<path d="M1919.85 210.474C1847.43 210.269 1768.5 212.825 1697.28 206.857C1578.77 196.904 1468.7 172.362 1351.38 160.239C1309.27 155.892 1267.73 153.288 1226.99 161.294C1192.37 168.112 1164.19 180.295 1137.68 192.153C1090.73 213.156 1041.15 241.339 970.268 243.968C924.513 245.662 879.89 234.618 841.233 224.9C797.422 213.88 755.689 201.268 711.892 190.242C672.595 180.344 626.028 168.643 579.355 171.174C539.139 173.357 505.383 185.504 476.699 197.537C420.545 221.102 362.925 258.924 276.542 255.41C177.229 251.383 103.164 213.259 2.30616 210.474" stroke="url(#paint63_linear_360_416)" stroke-miterlimit="10"/>
<path d="M1919.84 203.402C1847.11 203.029 1768.42 206.254 1696.95 199.87C1580.54 189.471 1472.95 164.525 1357.77 151.974C1315.16 147.326 1274.71 144.909 1233.39 152.969C1198.14 159.835 1168.96 171.892 1141.48 183.647C1092.96 204.421 1041.3 232.888 970.415 236.474C924.94 238.777 880.157 227.703 841.833 217.991C798.555 207.026 757.447 194.402 714.182 183.424C674.966 173.471 628.399 161.861 581.792 164.869C541.696 167.455 507.447 179.777 478.364 191.677C421.916 214.766 362.632 251.877 277.288 248.465C177.735 244.48 103.43 206.139 2.33296 203.402" stroke="url(#paint64_linear_360_416)" stroke-miterlimit="10"/>
<path d="M1919.81 196.452C1846.67 196.006 1768.19 200.129 1696.29 193.371C1582.25 182.653 1477.46 157.381 1364.71 144.541C1321.74 139.634 1282.23 137.445 1240.44 145.403C1204.65 152.221 1174.3 163.964 1145.79 175.629C1095.65 196.126 1041.6 224.49 970.787 228.945C925.725 231.784 881.289 220.939 843.311 211.27C800.765 200.418 760.523 187.873 718.004 177.028C678.907 167.057 632.78 155.778 586.386 159.214C546.25 162.192 511.388 174.568 481.653 186.342C424.46 208.949 363.231 245.131 278.54 241.767C178.547 237.801 103.83 199.213 2.29295 196.488" stroke="url(#paint65_linear_360_416)" stroke-miterlimit="10"/>
<path d="M1919.79 189.634C1846.13 189.206 1767.7 194.42 1695.29 187.319C1583.86 176.401 1482.12 150.871 1372.02 137.807C1328.88 132.689 1290.11 130.766 1247.98 138.495C1211.55 145.174 1180.07 156.58 1150.45 168.034C1098.22 188.163 1042.28 216.117 971.266 221.391C926.737 224.695 883.086 214.32 845.481 204.717C803.867 194.083 764.651 181.646 723.064 171C684.114 161.023 638.878 150.304 592.764 154.12C552.442 157.466 516.861 169.794 486.234 181.405C427.895 203.511 364.483 238.585 280.244 235.239C179.639 231.242 104.349 192.395 2.19944 189.652" stroke="url(#paint66_linear_360_416)" stroke-miterlimit="10"/>
<path d="M1919.77 182.948C1845.52 182.61 1767.12 189.079 1694.05 181.67C1585.41 170.656 1486.91 144.896 1379.65 131.76C1336.53 126.467 1298.3 124.822 1255.96 132.212C1218.87 138.687 1186.29 149.695 1155.46 160.799C1100.86 180.47 1043.22 207.755 971.933 213.789C885.91 221.078 798.981 183.147 729.27 165.266C690.466 155.307 646.456 145.33 600.741 149.508C560.1 153.228 523.773 165.435 492.093 176.871C432.277 198.459 366.494 232.278 282.468 228.915C181.118 224.863 105.108 185.733 2.22657 182.948" stroke="url(#paint67_linear_360_416)" stroke-miterlimit="10"/>
<path d="M1919.75 176.401C1844.84 176.214 1766.42 184.069 1692.6 176.401C1586.88 165.381 1491.77 139.501 1387.49 126.323C1344.52 120.897 1306.66 119.547 1264.2 126.51C1226.43 132.713 1192.72 143.233 1160.68 153.987C1103.71 173.097 1044.35 199.472 972.705 206.254C887.986 214.26 804.799 177.426 736.38 159.835C698.549 150.123 654.445 140.333 609.982 145.336C568.701 149.978 532.334 161.233 498.857 172.687C437.323 193.727 369.01 226.178 284.984 222.778C182.768 218.648 105.947 179.222 2.19922 176.359" stroke="url(#paint68_linear_360_416)" stroke-miterlimit="10"/>
<path d="M1919.72 169.981C1844.11 169.981 1765.61 179.343 1690.96 171.392C1588.25 160.45 1496.64 134.461 1395.43 121.356C1219.66 98.5742 1127.96 182.677 973.558 198.773C890.331 207.46 811.352 171.952 744.171 154.717C706.512 145.071 664.113 136.288 620.209 141.575C578.41 146.609 541.19 157.617 506.368 168.854C442.916 189.35 371.954 220.324 287.755 216.87C184.593 212.65 106.866 172.917 2.15984 169.981" stroke="url(#paint69_linear_360_416)" stroke-miterlimit="10"/>
<path d="M1919.69 163.699C1843.35 163.952 1764.72 174.852 1689.17 166.665C1589.53 155.868 1501.42 129.819 1403.37 116.828C1231.23 94.0285 1126.39 174.098 974.476 191.346C892.687 200.641 818.449 166.707 752.493 149.804C714.994 140.194 674.446 132.568 631.168 138.096C588.809 143.522 550.645 154.253 514.424 165.254C448.935 185.148 375.269 214.633 290.71 211.101C186.537 206.754 107.838 166.731 2.11968 163.699" stroke="url(#paint70_linear_360_416)" stroke-miterlimit="10"/>
<path d="M1919.67 157.55C1842.57 158.063 1763.77 170.554 1687.28 162.162C1590.69 151.564 1506.18 125.485 1411.17 112.669C1242.68 89.9353 1124.87 165.628 975.421 184.027C895.097 193.914 825.906 161.65 761.109 145.077C723.743 135.522 685.206 129.12 642.594 134.829C599.649 140.61 560.499 151.106 522.84 161.836C455.247 181.127 378.864 209.075 293.88 205.464C188.681 200.985 108.943 160.661 2.17295 157.526" stroke="url(#paint71_linear_360_416)" stroke-miterlimit="10"/>
<path d="M1919.64 151.534C1841.79 152.312 1762.77 166.4 1685.27 157.834C1591.66 147.477 1510.64 121.386 1418.69 108.786C1253.79 86.1857 1123.38 157.333 976.38 176.835C897.508 187.301 833.509 156.755 769.818 140.502C732.612 131.007 695.952 125.865 654.046 131.779C610.501 137.928 570.326 148.158 531.256 158.623C461.545 177.312 382.473 203.716 296.956 200.015C190.652 195.409 109.928 154.801 2.09295 151.534" stroke="url(#paint72_linear_360_416)" stroke-miterlimit="10"/>
<path d="M1919.61 145.656C1841.05 146.693 1761.76 162.343 1683.37 153.632C1592.63 143.546 1515.04 117.461 1426.02 105.109C1264.37 82.6831 1121.87 149.201 977.259 169.794C899.825 180.826 841.033 151.998 778.38 136.035C741.334 126.6 706.472 122.718 665.365 128.801C621.221 135.323 580.034 145.319 539.566 155.495C467.804 173.544 386.095 198.459 299.992 194.679C192.623 189.947 110.901 149.008 2.01343 145.668" stroke="url(#paint73_linear_360_416)" stroke-miterlimit="10"/>
<path d="M1919.59 139.905C1840.24 141.189 1760.76 158.34 1681.41 149.508C1593.4 139.712 1519.09 113.645 1432.84 101.558C1274.29 79.3375 1120.4 141.237 978.204 162.922C902.062 174.532 848.53 147.302 786.743 131.658C749.817 122.314 716.779 119.601 676.364 125.859C631.648 132.755 589.462 142.552 547.675 152.432C473.943 169.86 389.717 193.311 303.015 189.435C194.634 184.582 111.953 143.347 2.06656 139.905" stroke="url(#paint74_linear_360_416)" stroke-miterlimit="10"/>
<path d="M1919.56 134.293C1839.46 135.788 1759.76 154.349 1679.52 145.427C1594.03 135.926 1522.79 109.859 1439.12 98.0557C1357.96 86.6017 1271.62 99.5327 1195.81 113.35C1122.7 126.679 1053.2 144.161 979.004 156.248C903.82 168.498 855.868 142.552 794.546 127.312C713.117 107.086 629.717 132.737 555.186 149.37C479.669 166.201 393.073 188.253 305.798 184.292C196.458 179.337 112.871 137.813 2.01319 134.287" stroke="url(#paint75_linear_360_416)" stroke-miterlimit="10"/>
<path d="M1919.53 128.807C1838.69 130.476 1758.98 150.322 1677.71 141.334C1594.5 132.122 1526.09 106.073 1444.67 94.5289C1364.26 83.1111 1275.64 95.5115 1199.47 108.165C1124.88 120.56 1053.89 136.927 979.71 149.804C905.525 162.68 862.193 138.006 801.657 122.983C722.079 103.24 635.204 130.82 561.964 146.283C484.863 162.56 396.07 183.273 308.315 179.259C198.123 174.213 113.711 132.412 2.04032 128.807" stroke="url(#paint76_linear_360_416)" stroke-miterlimit="10"/>
<path d="M1919.51 123.459C1837.91 125.268 1758.26 146.223 1676.05 137.18C1594.82 128.252 1528.93 102.215 1449.67 90.8937C1369.86 79.5301 1279.22 91.4242 1202.7 103.029C1126.8 114.549 1054.39 129.934 980.322 143.6C945.38 150.045 919.773 150.31 885.989 141.997C858.531 135.239 835.307 125.425 807.889 118.618C771.309 109.528 742.173 109.781 703.862 116.539C657.828 124.671 612.978 134.021 567.81 143.106C489.416 158.828 398.692 178.336 310.539 174.285C199.587 169.185 114.469 127.107 1.99995 123.459" stroke="url(#paint77_linear_360_416)" stroke-miterlimit="10"/>
<path d="M1919.48 118.239C1837.12 120.047 1757.71 142.003 1674.54 132.93C1594.92 124.243 1531.28 98.1097 1453.62 87.0777C1374.23 75.7985 1281.92 87.1982 1205.1 97.9289C1128.28 108.659 1054.52 123.248 980.695 137.717C946.578 144.402 921.637 145.349 888.146 137.078C861.594 130.519 839.435 120.837 812.949 114.23C776.569 105.151 747.886 106.115 710.241 113.096C663.98 121.675 618.438 131.007 572.417 139.839C493.038 155.066 400.543 173.489 312.256 169.426C200.692 164.296 115.002 121.964 1.98643 118.293" stroke="url(#paint78_linear_360_416)" stroke-miterlimit="10"/>
<path d="M1919.45 113.163C1836.32 114.923 1757.37 137.638 1673.26 128.542C1594.83 120.047 1533.17 93.7153 1456.59 83.0088C1377.31 71.9104 1284 82.7918 1206.7 92.7568C1128.77 102.794 1054.37 116.774 980.855 132.038C947.431 138.971 922.769 140.43 889.531 132.159C863.698 125.738 842.432 116.117 816.678 109.636C780.471 100.527 751.814 102.004 714.742 109.251C668.414 118.293 622.34 127.649 575.613 136.294C495.715 151.082 401.676 168.552 313.455 164.519C201.452 159.395 115.348 116.822 1.85359 113.163" stroke="url(#paint79_linear_360_416)" stroke-miterlimit="10"/>
<path d="M1919.43 108.213C1835.54 109.811 1757.26 133.075 1672.22 123.954C1594.6 115.628 1534.28 89.1817 1458.62 78.6018C1379.58 67.5577 1285.05 78.2039 1207.55 87.548C1128.83 97.0428 1054.09 110.643 980.921 126.733C948.043 133.967 923.248 135.715 890.184 127.39C864.883 121.018 844.283 111.39 819.022 104.958C782.948 95.7708 753.892 97.507 717.259 105.085C671.024 114.646 624.604 124.068 577.357 132.568C497.22 146.982 402.088 163.669 314.227 159.696C201.958 154.626 115.641 111.824 1.8802 108.213" stroke="url(#paint80_linear_360_416)" stroke-miterlimit="10"/>
<path d="M1919.39 103.391C1835.07 104.826 1757.34 128.343 1671.78 119.137C1594.43 110.818 1534.47 84.3954 1459.04 73.8758C1380.09 62.8678 1285.13 73.7311 1207.6 82.8762C1128.6 92.1962 1054.11 105.694 980.841 121.856C948.083 129.09 922.942 130.597 890.104 122.326C864.976 115.996 844.509 106.453 819.381 100.105C783.427 91.0267 753.838 92.7146 717.552 100.509C671.517 110.396 625.043 119.891 577.597 128.306C497.846 142.455 401.476 158.955 314.294 154.832C202.184 149.539 115.308 107.46 1.84016 103.409" stroke="url(#paint81_linear_360_416)" stroke-miterlimit="10"/>
<path d="M1919.36 98.6464C1834.86 100.009 1757.35 123.682 1671.6 114.369C1594.36 105.977 1534.09 79.7774 1458.62 69.3241C1379.66 58.3885 1284.92 69.728 1207.51 78.9334C1128.76 88.3016 1054.59 101.775 980.815 117.172C910.984 131.742 876.375 109.335 818.862 95.3609C782.908 86.6257 753.132 88.2172 717.178 96.0421C671.344 106.019 624.95 115.49 577.517 123.809C498.232 137.711 400.61 154.289 314.054 149.816C202.424 144.04 114.483 103.674 1.77349 98.7368" stroke="url(#paint82_linear_360_416)" stroke-miterlimit="10"/>
<path d="M1919.33 93.9744C1834.58 95.2886 1757.26 119.137 1671.24 109.745C1594 101.305 1533.49 75.3827 1457.98 65.0259C1379.03 54.1747 1284.56 65.9482 1207.27 75.1838C1128.83 84.558 1054.93 97.9713 980.735 112.59C911.49 126.239 875.643 104.229 818.09 90.8879C782.136 82.5325 752.094 84.0757 716.46 91.9127C670.838 101.944 624.577 111.342 577.158 119.517C498.192 133.135 399.598 149.538 313.761 144.764C202.69 138.591 113.671 99.9787 1.78694 94.2578" stroke="url(#paint83_linear_360_416)" stroke-miterlimit="10"/>
<path d="M1919.31 89.3868C1834.26 90.6649 1757.06 114.706 1670.72 105.272C1593.58 96.844 1532.71 71.2171 1457.14 60.9688C1378.19 50.2985 1284.03 62.3674 1206.89 71.609C1128.81 80.9531 1055.08 94.2638 980.615 108.075C911.863 120.813 874.79 99.2916 817.091 86.5716C781.044 78.6321 750.776 80.1754 715.408 88.0063C670.039 98.0557 623.871 107.346 576.532 115.327C497.766 128.62 398.573 144.619 313.322 139.598C202.796 133.093 112.752 96.2954 1.72027 89.8691" stroke="url(#paint84_linear_360_416)" stroke-miterlimit="10"/>
<path d="M1919.28 84.8776C1833.87 86.1436 1756.82 110.372 1670.04 100.931C1592.97 92.5518 1531.72 67.2143 1456.09 57.1709C1377.16 46.6875 1283.48 59.0277 1206.37 68.2391C1128.72 77.5229 1055.21 90.695 980.442 103.674C912.209 115.52 873.832 94.5653 815.866 82.5325C779.699 75.0211 749.191 76.6186 714.049 84.4255C669.035 94.5259 622.844 103.513 575.68 111.348C496.98 124.273 397.508 139.682 312.749 134.431C202.943 127.661 111.793 92.7206 1.73372 85.6854" stroke="url(#paint85_linear_360_416)" stroke-miterlimit="10"/>
<path d="M1919.24 80.4524C1833.44 81.7184 1756.42 106.158 1669.21 96.7292C1592.21 88.416 1530.55 63.4161 1454.82 53.5777C1375.92 43.3293 1282.64 55.8624 1205.67 65.0317C1128.44 74.219 1055.13 87.2103 980.189 99.3455C912.462 110.317 872.7 89.9834 814.388 78.6801C778.047 71.6328 747.313 73.3208 712.371 81.0914C667.628 91.125 621.606 99.9441 574.548 107.502C495.808 120.023 396.349 134.594 312.043 129.204C202.943 122.229 110.754 89.1997 1.65369 81.6159" stroke="url(#paint86_linear_360_416)" stroke-miterlimit="10"/>
<path d="M1919.21 76.1243C1832.98 77.3963 1755.97 102.047 1668.27 92.6904C1591.31 84.4797 1529.22 59.8415 1453.46 50.2382C1374.6 40.243 1281.82 52.9268 1204.91 62.0177C1128.25 71.0604 1054.97 83.8467 979.949 95.1199C912.702 105.23 871.475 85.5889 812.763 75.0512C776.223 68.4923 745.249 70.3068 710.454 78.0654C666.017 88.003 620.201 96.6237 573.296 103.873C494.424 115.93 395.27 129.53 311.324 124.014C202.983 116.901 109.796 85.818 1.68067 77.77" stroke="url(#paint87_linear_360_416)" stroke-miterlimit="10"/>
<path d="M1919.19 71.8801C1832.47 73.1822 1755.4 98.0676 1667.19 88.7597C1590.29 80.6936 1527.74 56.4473 1451.91 47.1032C1373.1 37.3974 1280.82 50.1717 1204.09 59.1601C1127.96 68.0821 1054.76 80.5791 979.71 90.9842C912.928 100.238 870.156 81.3387 811.005 71.6088C774.239 65.5803 743.026 67.5336 708.337 75.2258C664.194 85.0456 618.569 93.4361 571.805 100.334C492.679 111.927 394.085 124.376 310.446 118.763C202.89 111.529 108.743 82.466 1.64046 74.0021" stroke="url(#paint88_linear_360_416)" stroke-miterlimit="10"/>
<path d="M1919.16 67.7325C1831.93 69.0708 1754.86 94.1974 1666 85.016C1589.16 77.0706 1526.12 53.2342 1450.2 44.1794C1371.46 34.7932 1279.75 47.6096 1203.13 56.4835C1127.53 65.2428 1054.4 77.4263 979.416 86.9512C913.088 95.391 868.678 77.2635 809.061 68.3715C772.041 62.8555 740.588 65.0197 705.979 72.5914C662.145 82.2623 616.736 90.3965 570.153 96.9222C490.721 107.984 392.926 119.149 309.526 113.47C202.77 106.236 107.731 79.1685 1.64029 70.3549" stroke="url(#paint89_linear_360_416)" stroke-miterlimit="10"/>
<path d="M1919.13 63.6873C1831.35 65.0739 1754.21 90.4415 1664.79 81.3868C1587.9 73.6282 1524.37 50.2017 1448.36 41.4605C1369.7 32.4179 1278.63 45.2283 1202.01 53.9695C1126.97 62.5419 1053.89 74.3757 978.99 83.0145C913.114 90.6163 866.973 73.3328 806.864 65.321C769.578 60.3536 737.899 62.7288 703.316 70.2644C659.801 79.7655 614.619 87.6153 568.236 93.733C488.498 104.229 391.688 114.019 308.475 108.274C202.557 100.997 106.666 76.0396 1.58692 66.9246" stroke="url(#paint90_linear_360_416)" stroke-miterlimit="10"/>
<path d="M1919.11 59.7631C1830.78 61.1918 1753.55 86.8006 1663.34 77.8966C1586.57 70.3128 1522.51 47.3445 1446.42 38.9348C1367.85 30.2479 1277.41 43.0281 1200.96 51.5946C1126.47 59.962 1053.44 71.404 978.697 79.1626C913.234 85.9627 865.269 69.5171 804.693 62.4276C767.141 58.0209 735.208 60.6191 700.613 68.1004C657.426 77.4115 612.487 84.955 566.331 90.6407C486.074 100.527 390.463 108.786 307.382 103.053C202.29 95.8191 105.64 72.9593 1.56023 63.5851" stroke="url(#paint91_linear_360_416)" stroke-miterlimit="10"/>
<path d="M1919.08 55.9048C1830.12 57.418 1752.73 83.2739 1661.89 74.5387C1585.14 67.1659 1520.51 44.6558 1444.37 36.5957C1365.87 28.2946 1276.1 41.0025 1199.76 49.4242C1125.83 57.5807 1052.86 68.5886 978.312 75.4671C913.235 81.4955 863.379 65.9361 802.35 59.7932C764.518 55.9651 732.346 58.8407 697.697 66.2195C654.839 75.3218 610.148 82.5388 564.241 87.7711C483.491 97.0067 389.212 103.68 306.238 97.9411C201.971 90.7371 104.629 70.0596 1.53418 60.4683" stroke="url(#paint92_linear_360_416)" stroke-miterlimit="10"/>
<path d="M1919.05 52.1732C1829.45 53.7647 1751.93 79.8678 1660.33 71.3255C1583.64 64.1698 1518.5 42.1359 1442.22 34.4436C1363.83 26.5343 1274.76 39.1518 1198.54 47.3866C1125.14 55.314 1052.26 65.8577 977.951 71.856C913.207 77.0827 861.42 62.4637 799.926 57.2371C761.828 53.9998 729.429 57.1587 694.66 64.4712C652.136 73.3472 607.705 80.2157 562.07 84.9679C480.84 93.5041 387.999 98.5198 305.065 92.8048C201.611 85.6853 103.656 67.19 1.50684 57.4059" stroke="url(#paint93_linear_360_416)" stroke-miterlimit="10"/>
<path d="M1919.03 48.5561C1828.8 50.232 1751.08 76.5822 1658.77 68.2449C1582.07 61.3182 1516.38 39.7726 1440.01 32.4602C1361.73 24.9668 1273.36 37.4577 1197.19 45.4996C1124.31 53.198 1051.54 63.2353 977.472 68.3595C913.008 72.8145 859.25 59.148 797.316 54.8859C758.938 52.2394 726.313 55.6998 691.411 62.9037C649.218 71.5501 605.047 78.064 559.7 82.3273C477.924 90.1221 386.668 93.4257 303.761 87.7529C201.225 80.7238 102.684 64.4591 1.48047 54.5122" stroke="url(#paint94_linear_360_416)" stroke-miterlimit="10"/>
<path d="M1919 45.0537C1828.12 46.8201 1750.2 73.3874 1657.14 65.3032C1580.43 58.6177 1514.2 37.5604 1437.74 30.6458C1359.56 23.5925 1271.91 35.9267 1195.83 43.7636C1123.45 51.2208 1050.8 60.7216 977.059 64.9777C912.821 68.6852 857.106 55.9893 794.772 52.6917C756.155 50.6481 723.277 54.4219 688.242 61.5355C646.376 69.9359 602.472 76.0768 557.436 79.8318C475.141 86.8428 385.496 88.4042 302.589 82.7736C200.799 75.865 101.872 61.8489 1.54693 51.7573" stroke="url(#paint95_linear_360_416)" stroke-miterlimit="10"/>
<path d="M1918.97 41.6776C1827.43 43.5344 1749.28 70.3729 1655.47 62.4998C1578.78 56.0554 1511.96 35.5045 1435.41 29.0179C1357.36 22.3867 1270.44 34.5822 1194.38 42.2021C1122.47 49.4362 1049.99 58.3523 976.553 61.7463C912.435 64.7123 854.816 53.005 792.003 50.6781C753.106 49.2373 720.095 53.3426 684.727 60.3597C643.184 68.5099 599.548 74.2698 554.839 77.5046C367.08 91.5448 183.088 67.8591 1.36077 49.171" stroke="url(#paint96_linear_360_416)" stroke-miterlimit="10"/>
<path d="M1918.95 38.4105C1826.72 40.3697 1748.35 67.4434 1653.77 59.8174C1577.08 53.6323 1509.68 33.5938 1433.04 27.487C1355.12 21.2777 1268.94 33.3225 1193.04 40.7194C1121.54 47.7063 1049.27 56.0436 976.167 58.5575C912.062 60.782 852.632 50.1177 789.353 48.7311C750.229 47.8872 716.939 52.3482 681.371 59.2628C640.303 67.2987 596.692 72.4229 552.416 75.2562C369.437 86.9695 178.587 65.2249 1.40057 46.6634" stroke="url(#paint97_linear_360_416)" stroke-miterlimit="10"/>
<path d="M1918.92 35.2754C1826.01 37.3371 1747.41 64.6459 1652.05 57.2731C1575.35 51.323 1507.39 31.8211 1430.65 26.1242C1352.87 20.355 1267.43 32.237 1191.61 39.3867C1120.5 46.1084 1048.49 53.855 975.714 55.549C911.49 57.044 850.381 47.3865 786.623 46.9826C747.273 46.7354 713.77 51.5461 677.922 58.3763C637.121 66.147 593.803 70.8311 549.899 73.158C466.259 77.5889 381.448 73.8151 298.501 68.3956C198.975 61.8909 99.3021 54.7532 1.37403 44.2818" stroke="url(#paint98_linear_360_416)" stroke-miterlimit="10"/>
<path d="M1918.89 32.2674C1826.11 34.3954 1747.61 61.7525 1652.34 55.0127C1575.95 49.5871 1507.86 30.8447 1431.72 25.1599C1354.75 19.4148 1271.03 30.8145 1195.87 37.699C1123.22 44.3303 1049.62 51.7392 975.248 52.6676C909.226 53.4935 844.895 44.3665 779.019 45.4335C739.257 46.0785 706.112 51.9623 669.666 58.4971C631.807 65.2851 591.832 69.1735 551.404 71.0121C465.354 74.9246 380.01 69.1554 294.985 63.7117C196.844 57.4301 97.8237 52.5953 1.30718 42.0937" stroke="url(#paint99_linear_360_416)" stroke-miterlimit="10"/>
<path d="M1918.88 29.3919C1825.45 31.6224 1746.63 59.2085 1650.66 52.728C1574.26 47.5676 1505.62 29.3196 1429.36 24.0507C1352.55 18.7698 1269.5 30.0068 1194.45 36.6682C1122.14 43.0945 1048.82 49.9308 974.835 49.9308C908.427 49.9308 842.671 42.0154 776.25 44.035C736.434 45.2406 703.01 51.462 666.284 57.8581C628.678 64.405 588.969 67.8834 548.887 69.2579C462.557 72.2179 378.691 64.604 293.68 59.311C196.178 53.2404 97.1714 50.6542 1.33399 40.02" stroke="url(#paint100_linear_360_416)" stroke-miterlimit="10"/>
<path d="M1918.85 26.6549C1824.72 28.9879 1745.74 56.7971 1648.96 50.5697C1572.52 45.6505 1503.36 27.9149 1426.99 23.056C1350.34 18.1669 1267.94 29.3255 1192.93 35.7699C1121.02 41.9611 1047.98 48.1825 974.383 47.3023C907.495 46.5005 840.448 39.7728 773.467 42.7328C733.598 44.4991 699.908 51.052 662.942 57.3095C625.656 63.6213 586.133 66.6898 546.424 67.6C459.868 69.5955 377.387 60.173 292.402 55.0247C195.513 49.153 96.6526 48.8275 1.37445 38.0607" stroke="url(#paint101_linear_360_416)" stroke-miterlimit="10"/>
<path d="M1918.83 24.0565C1824.04 26.4679 1744.73 54.5121 1647.27 48.544C1570.82 43.8599 1501.12 26.6065 1424.63 22.1817C1348.14 17.7568 1266.41 28.7647 1191.6 34.9861C1119.86 40.9542 1047.17 46.5908 973.97 44.8245C906.496 43.1968 838.303 37.6747 770.763 41.5631C730.814 43.8599 696.884 50.7685 659.572 56.8813C622.26 62.9941 583.243 65.6225 543.907 66.0807C457.351 67.0995 375.962 55.9107 291.07 50.9071C194.74 45.2284 95.9597 47.1575 1.32075 36.2339" stroke="url(#paint102_linear_360_416)" stroke-miterlimit="10"/>
<path d="M1918.81 21.5969C1823.38 24.1289 1743.79 52.3419 1645.63 46.6511C1569.14 42.1961 1498.94 25.4672 1422.34 21.4161C1346.07 17.383 1264.84 28.3186 1190.16 34.329C1118.64 40.0801 1046.34 45.1259 973.504 42.4915C905.365 40.0258 836.16 35.7034 768.02 40.5021C728.191 43.3113 693.862 50.5816 656.283 56.5558C619.397 62.4154 580.38 64.67 541.47 64.6881C454.914 64.7364 374.564 51.8355 289.792 46.9645C193.915 41.4546 95.3739 45.6323 1.3209 34.5339" stroke="url(#paint103_linear_360_416)" stroke-miterlimit="10"/>
<path d="M1918.8 19.2882C1822.72 21.9045 1742.89 50.3527 1644.03 44.8789C1567.5 40.659 1496.79 24.3822 1420.11 20.7652C1343.91 17.1481 1263.49 27.9993 1188.8 33.7986C1117.43 39.3207 1045.49 43.7998 973.078 40.3093C904.206 36.9937 834.109 33.871 765.344 39.5618C725.528 42.8473 690.906 50.4853 653.047 56.3209C616.334 61.9755 577.651 63.8263 539.1 63.4163C452.677 62.506 373.165 47.9534 288.514 43.197C193.182 37.8437 94.8947 44.27 1.28106 32.9486" stroke="url(#paint104_linear_360_416)" stroke-miterlimit="10"/>
<path d="M1918.77 17.1238C1822.1 19.8305 1741.99 48.4716 1642.47 43.2389C1565.91 39.2059 1494.66 23.4536 1417.94 20.1802C1341.9 16.9369 1262.13 27.77 1187.48 33.3523C1116.24 38.6634 1044.67 42.5818 972.665 38.2534C903.021 34.0697 832.058 32.1285 762.813 38.6935C723.038 42.4613 688.122 50.461 649.931 56.1759C613.444 61.6015 574.96 63.0966 536.743 62.2707C450.546 60.42 371.714 44.2879 287.208 39.6339C192.33 34.4073 94.3352 43.0641 1.17439 31.5197" stroke="url(#paint105_linear_360_416)" stroke-miterlimit="10"/>
<path d="M1918.76 15.1104C1821.55 17.9015 1741.15 46.7476 1641 41.7259C1564.39 37.8797 1492.75 22.6037 1415.85 19.692C1339.94 16.8224 1260.76 27.6374 1186.23 33.0269C1115.08 38.1812 1043.87 41.5089 972.292 36.3606C901.836 31.2967 830.234 30.513 760.39 37.928C720.694 42.1479 685.446 50.5093 647.002 56.0916C610.702 61.3605 572.431 62.4516 534.612 61.2339C448.722 58.4668 370.436 40.8457 286.09 36.2521C191.544 31.1219 93.9494 41.9972 1.20136 30.1754" stroke="url(#paint106_linear_360_416)" stroke-miterlimit="10"/>
<path d="M1918.75 13.2599C1820.93 16.1174 1740.31 45.1563 1639.6 40.3336C1562.92 36.6683 1490.84 21.8444 1413.86 19.2883C1338.08 16.7745 1259.51 27.5895 1185.05 32.8101C1113.96 37.7956 1043.1 40.5687 971.92 34.6186C900.744 28.6686 828.436 29.0182 758.046 37.253C718.444 41.8889 682.849 50.5156 644.192 56.0738C608.238 61.2522 569.914 61.9033 532.561 60.2937C447.017 56.6766 369.17 37.6328 284.998 33.0995C190.865 28.0295 93.5496 41.1052 1.201 28.964" stroke="url(#paint107_linear_360_416)" stroke-miterlimit="10"/>
<path d="M1918.67 11.5355C1820.31 14.4533 1739.52 43.6852 1638.21 39.0493C1561.56 35.5588 1489.06 21.181 1411.98 18.9565C1336.37 16.7742 1258.31 27.6254 1183.93 32.6953C1112.89 37.5181 1042.35 39.7667 971.586 33.0329C899.492 26.1786 826.758 27.6073 755.862 36.65C716.339 41.6777 680.439 50.6299 641.555 56.1098C605.748 61.1556 567.623 61.4449 530.657 59.5098C490.322 57.3938 450.999 52.547 412.275 47.1696C370.488 41.3763 327.49 32.5386 283.959 30.1996C190.146 25.1538 93.1633 40.3997 1.1876 27.8967" stroke="url(#paint108_linear_360_416)" stroke-miterlimit="10"/>
<path d="M1918.67 10.0286C1819.83 12.9946 1738.9 42.4133 1637 37.9342C1560.29 34.5583 1487.39 20.5783 1410.22 18.6854C1334.73 16.8105 1257.23 27.728 1182.92 32.6714C1111.87 37.3856 1041.62 39.1037 971.266 31.6103C898.386 23.8457 825.173 26.3114 753.758 36.1377C714.408 41.5633 678.201 50.7868 639.118 56.1883C603.457 61.1135 565.505 61.0773 528.899 58.8106C488.644 56.3269 449.547 51.0581 411.05 45.3371C369.569 39.176 326.505 29.8802 282.987 27.5231C189.467 22.4652 92.7902 39.8512 1.1741 26.9202" stroke="url(#paint109_linear_360_416)" stroke-miterlimit="10"/>
<path d="M1918.67 8.65979C1819.38 11.674 1738.23 41.2676 1635.9 36.9211C1559.13 33.6537 1485.89 20.0957 1408.65 18.4741C1333.27 16.8886 1256.29 27.9327 1182.02 32.7494C1110.97 37.3491 1040.96 38.5849 971.027 30.338C897.308 21.6752 823.762 25.1114 751.841 35.6913C712.638 41.4544 676.164 50.9613 636.881 56.3025C601.367 61.1252 563.642 60.7876 527.301 58.2255C487.139 55.3922 448.242 49.7254 409.945 43.691C368.744 37.1984 325.626 27.4926 282.108 25.0993C188.894 19.9752 92.4443 39.4771 1.13445 26.0819" stroke="url(#paint110_linear_360_416)" stroke-miterlimit="10"/>
<path d="M1918.67 7.46033C1818.97 10.4745 1737.69 40.2731 1634.91 36.0291C1558.05 32.8521 1484.44 19.6679 1407.12 18.3115C1331.82 16.9853 1255.32 28.1921 1181.13 32.9124C1110.05 37.4277 1040.25 38.2053 970.734 29.2531C896.256 19.6619 822.524 24.0023 750.096 35.2815C711.026 41.3763 674.313 51.1303 634.87 56.4233C599.476 61.1676 561.884 60.5648 525.89 57.7314C485.781 54.5725 447.097 48.5441 408.973 42.2203C367.998 35.4142 324.854 25.3768 281.283 22.9293C188.255 17.6966 92.0448 39.2663 1.13445 25.3407" stroke="url(#paint111_linear_360_416)" stroke-miterlimit="10"/>
<path d="M1918.67 6.43555C1818.58 9.44976 1737.22 39.4352 1634.05 35.2575C1557.17 32.1468 1483.22 19.3123 1405.84 18.1669C1330.62 17.0757 1254.62 28.4815 1180.44 33.1355C1109.32 37.5965 1039.65 37.9582 970.534 28.3127C895.284 17.8052 821.511 22.9655 748.551 34.944C709.654 41.3341 672.728 51.3112 633.139 56.568C597.851 61.2581 560.445 60.4262 524.704 57.3517C484.649 53.8974 446.138 47.5434 408.174 40.9543C367.386 33.8709 324.281 23.5744 280.59 21.0605C187.762 15.6651 91.6716 39.2664 1.12078 24.7258" stroke="url(#paint112_linear_360_416)" stroke-miterlimit="10"/>
<path d="M1918.67 5.57935C1819.08 8.59356 1737.98 38.579 1635.4 34.6907C1554.35 31.6222 1475.99 17.7628 1394.21 18.0461C1324.28 18.2873 1254.12 28.6863 1185.05 33.1594C1111.66 37.9098 1041.42 37.7772 970.348 27.6072C891.542 16.3582 817.703 22.2721 741.747 35.6492C707.697 41.6414 675.259 49.816 640.956 55.4285C604.656 61.3665 564.8 60.7877 527.448 57.4902C485.062 53.7526 444.487 46.639 404.512 39.4049C364.217 32.0864 321.378 21.7838 277.927 19.3724C186.045 14.3025 90.4868 39.3325 1.13445 24.2373" stroke="url(#paint113_linear_360_416)" stroke-miterlimit="10"/>
<path d="M1918.67 4.90417C1818.8 7.87619 1737.7 38.0605 1634.84 34.1662C1553.76 31.0917 1475.05 17.5579 1393.29 18.01C1323.42 18.4018 1253.61 29.0902 1184.58 33.5694C1111.14 38.3318 1040.91 37.8616 970.188 27.0285C890.583 14.827 817.13 21.4341 740.548 35.4683C706.658 41.6776 674.127 49.9245 639.731 55.543C603.51 61.487 563.828 60.7877 526.689 57.3033C484.329 53.3306 443.914 45.9096 404.059 38.4825C363.817 30.9832 320.992 20.566 277.434 18.0341C185.725 12.7411 90.0603 39.646 1.12078 23.8214" stroke="url(#paint114_linear_360_416)" stroke-miterlimit="10"/>
<path d="M1918.67 4.42175C1818.6 7.34554 1737.57 37.7107 1634.42 33.7561C1553.32 30.6454 1474.44 17.401 1392.57 17.9978C1322.72 18.5042 1253.25 29.5362 1184.25 34.0515C1110.77 38.8742 1040.43 38.1086 970.161 26.6245C889.784 13.4945 816.917 20.6563 739.683 35.2813C705.873 41.6775 673.261 50.0087 638.838 55.6936C602.645 61.6677 563.308 60.9142 526.196 57.267C440.452 48.8272 363.63 22.4046 277.061 17.0754C185.512 11.4388 89.5943 40.1583 1.12078 23.5379" stroke="url(#paint115_linear_360_416)" stroke-miterlimit="10"/>
<path d="M1918.67 4.11511C1818.44 6.97862 1737.43 37.5247 1634.17 33.4736C1553.06 30.2845 1473.9 17.2993 1392.07 17.9926C1322.22 18.5954 1253.05 30.0133 1184.07 34.6069C1110.57 39.502 1039.99 38.5133 970.121 26.4082C889.038 12.356 816.984 19.9337 739.017 35.1495C705.486 41.6783 672.795 50.3291 638.292 55.7908C601.646 61.5841 563.495 61.1139 525.983 57.304C440.093 48.5748 363.697 22.1281 276.822 16.4131C185.392 10.3847 89.0617 40.8584 1.1741 23.3579" stroke="url(#paint116_linear_360_416)" stroke-miterlimit="10"/>
<path d="M1918.67 4C1818.33 6.77911 1737.47 37.506 1634.1 33.3042C1552.99 30.0067 1473.73 17.2384 1391.74 17.986C1321.87 18.625 1252.97 30.5251 1184.01 35.2273C1110.5 40.2369 1039.55 39.0855 970.095 26.3715C888.386 11.4029 817.344 19.2519 738.631 35.0464C666.723 49.4664 607.479 65.8819 526.049 57.43C439.933 48.4898 363.897 22.2662 276.715 16.093C185.392 9.62453 88.5557 41.744 1.06764 23.3272" stroke="url(#paint117_linear_360_416)" stroke-miterlimit="10"/>
</g>
<defs>
<filter id="filter0_f_360_416" x="-4" y="0" width="1928" height="658" filterUnits="userSpaceOnUse" color-interpolation-filters="sRGB">
<feFlood flood-opacity="0" result="BackgroundImageFix"/>
<feBlend mode="normal" in="SourceGraphic" in2="BackgroundImageFix" result="shape"/>
<feGaussianBlur stdDeviation="2" result="effect1_foregroundBlur_360_416"/>
</filter>
<linearGradient id="paint0_linear_360_416" x1="-1.37873e+06" y1="-168.928" x2="-1.37873e+06" y2="-156.338" gradientUnits="userSpaceOnUse">
<stop stop-color="#B8912C"/>
<stop offset="0.9999" stop-color="#2EB75B"/>
<stop offset="1" stop-color="#2CB85B"/>
</linearGradient>
<linearGradient id="paint1_linear_360_416" x1="-1.3787e+06" y1="-1556.06" x2="-1.3787e+06" y2="-1508.44" gradientUnits="userSpaceOnUse">
<stop stop-color="#B8912C"/>
<stop offset="0.9999" stop-color="#2EB75B"/>
<stop offset="1" stop-color="#2CB85B"/>
</linearGradient>
<linearGradient id="paint2_linear_360_416" x1="-1.37873e+06" y1="-3156.01" x2="-1.37873e+06" y2="-3068.07" gradientUnits="userSpaceOnUse">
<stop stop-color="#B8912C"/>
<stop offset="0.9999" stop-color="#2EB75B"/>
<stop offset="1" stop-color="#2CB85B"/>
</linearGradient>
<linearGradient id="paint3_linear_360_416" x1="-1.37873e+06" y1="-5520.94" x2="-1.37873e+06" y2="-5373.54" gradientUnits="userSpaceOnUse">
<stop stop-color="#B8912C"/>
<stop offset="0.9999" stop-color="#2EB75B"/>
<stop offset="1" stop-color="#2CB85B"/>
</linearGradient>
<linearGradient id="paint4_linear_360_416" x1="-1.37873e+06" y1="-9426.15" x2="-1.37873e+06" y2="-9180.71" gradientUnits="userSpaceOnUse">
<stop stop-color="#B8912C"/>
<stop offset="0.9999" stop-color="#2EB75B"/>
<stop offset="1" stop-color="#2CB85B"/>
</linearGradient>
<linearGradient id="paint5_linear_360_416" x1="-1.37873e+06" y1="-13715.2" x2="-1.37873e+06" y2="-13362.1" gradientUnits="userSpaceOnUse">
<stop stop-color="#B8912C"/>
<stop offset="0.9999" stop-color="#2EB75B"/>
<stop offset="1" stop-color="#2CB85B"/>
</linearGradient>
<linearGradient id="paint6_linear_360_416" x1="-1.37873e+06" y1="-18928.7" x2="-1.37873e+06" y2="-18444.8" gradientUnits="userSpaceOnUse">
<stop stop-color="#B8912C"/>
<stop offset="0.9999" stop-color="#2EB75B"/>
<stop offset="1" stop-color="#2CB85B"/>
</linearGradient>
<linearGradient id="paint7_linear_360_416" x1="-1.37872e+06" y1="-24407.9" x2="-1.37872e+06" y2="-23786.6" gradientUnits="userSpaceOnUse">
<stop stop-color="#B8912C"/>
<stop offset="0.9999" stop-color="#2EB75B"/>
<stop offset="1" stop-color="#2CB85B"/>
</linearGradient>
<linearGradient id="paint8_linear_360_416" x1="-1.37874e+06" y1="-29902.5" x2="-1.37874e+06" y2="-29143.3" gradientUnits="userSpaceOnUse">
<stop stop-color="#B8912C"/>
<stop offset="0.9999" stop-color="#2EB75B"/>
<stop offset="1" stop-color="#2CB85B"/>
</linearGradient>
<linearGradient id="paint9_linear_360_416" x1="-1.37871e+06" y1="-35126.4" x2="-1.37871e+06" y2="-34236.2" gradientUnits="userSpaceOnUse">
<stop stop-color="#B8912C"/>
<stop offset="0.9999" stop-color="#2EB75B"/>
<stop offset="1" stop-color="#2CB85B"/>
</linearGradient>
<linearGradient id="paint10_linear_360_416" x1="-1.37873e+06" y1="-40309.9" x2="-1.37873e+06" y2="-39289.7" gradientUnits="userSpaceOnUse">
<stop stop-color="#B8912C"/>
<stop offset="0.9999" stop-color="#2EB75B"/>
<stop offset="1" stop-color="#2CB85B"/>
</linearGradient>
<linearGradient id="paint11_linear_360_416" x1="-1.37873e+06" y1="-44295.9" x2="-1.37873e+06" y2="-43175.6" gradientUnits="userSpaceOnUse">
<stop stop-color="#B8912C"/>
<stop offset="0.9999" stop-color="#2EB75B"/>
<stop offset="1" stop-color="#2CB85B"/>
</linearGradient>
<linearGradient id="paint12_linear_360_416" x1="-1.37873e+06" y1="-47255.3" x2="-1.37873e+06" y2="-46060.7" gradientUnits="userSpaceOnUse">
<stop stop-color="#B8912C"/>
<stop offset="0.9999" stop-color="#2EB75B"/>
<stop offset="1" stop-color="#2CB85B"/>
</linearGradient>
<linearGradient id="paint13_linear_360_416" x1="-1.37877e+06" y1="-48847.1" x2="-1.37877e+06" y2="-47612.4" gradientUnits="userSpaceOnUse">
<stop stop-color="#B8912C"/>
<stop offset="0.9999" stop-color="#2EB75B"/>
<stop offset="1" stop-color="#2CB85B"/>
</linearGradient>
<linearGradient id="paint14_linear_360_416" x1="-1.37873e+06" y1="-49569.6" x2="-1.37873e+06" y2="-48316.7" gradientUnits="userSpaceOnUse">
<stop stop-color="#B8912C"/>
<stop offset="0.9999" stop-color="#2EB75B"/>
<stop offset="1" stop-color="#2CB85B"/>
</linearGradient>
<linearGradient id="paint15_linear_360_416" x1="-1.37871e+06" y1="-50301.7" x2="-1.37871e+06" y2="-49030.1" gradientUnits="userSpaceOnUse">
<stop stop-color="#B8912C"/>
<stop offset="0.9999" stop-color="#2EB75B"/>
<stop offset="1" stop-color="#2CB85B"/>
</linearGradient>
<linearGradient id="paint16_linear_360_416" x1="-1.37872e+06" y1="-50725.5" x2="-1.37872e+06" y2="-49443.2" gradientUnits="userSpaceOnUse">
<stop stop-color="#B8912C"/>
<stop offset="0.9999" stop-color="#2EB75B"/>
<stop offset="1" stop-color="#2CB85B"/>
</linearGradient>
<linearGradient id="paint17_linear_360_416" x1="-1.37876e+06" y1="-50863.7" x2="-1.37876e+06" y2="-49577.7" gradientUnits="userSpaceOnUse">
<stop stop-color="#B8912C"/>
<stop offset="0.9999" stop-color="#2EB75B"/>
<stop offset="1" stop-color="#2CB85B"/>
</linearGradient>
<linearGradient id="paint18_linear_360_416" x1="-1.37873e+06" y1="-50751.3" x2="-1.37873e+06" y2="-49468" gradientUnits="userSpaceOnUse">
<stop stop-color="#B8912C"/>
<stop offset="0.9999" stop-color="#2EB75B"/>
<stop offset="1" stop-color="#2CB85B"/>
</linearGradient>
<linearGradient id="paint19_linear_360_416" x1="-1.37873e+06" y1="-50412" x2="-1.37873e+06" y2="-49137" gradientUnits="userSpaceOnUse">
<stop stop-color="#B8912C"/>
<stop offset="0.9999" stop-color="#2EB75B"/>
<stop offset="1" stop-color="#2CB85B"/>
</linearGradient>
<linearGradient id="paint20_linear_360_416" x1="-1.37874e+06" y1="-49604.3" x2="-1.37874e+06" y2="-48349.5" gradientUnits="userSpaceOnUse">
<stop stop-color="#B8912C"/>
<stop offset="0.9999" stop-color="#2EB75B"/>
<stop offset="1" stop-color="#2CB85B"/>
</linearGradient>
<linearGradient id="paint21_linear_360_416" x1="-1.37875e+06" y1="-49070.2" x2="-1.37875e+06" y2="-47828.7" gradientUnits="userSpaceOnUse">
<stop stop-color="#B8912C"/>
<stop offset="0.9999" stop-color="#2EB75B"/>
<stop offset="1" stop-color="#2CB85B"/>
</linearGradient>
<linearGradient id="paint22_linear_360_416" x1="-1.3787e+06" y1="-48420.1" x2="-1.3787e+06" y2="-47194.7" gradientUnits="userSpaceOnUse">
<stop stop-color="#B8912C"/>
<stop offset="0.9999" stop-color="#2EB75B"/>
<stop offset="1" stop-color="#2CB85B"/>
</linearGradient>
<linearGradient id="paint23_linear_360_416" x1="-1.37873e+06" y1="-47728" x2="-1.37873e+06" y2="-46519.8" gradientUnits="userSpaceOnUse">
<stop stop-color="#B8912C"/>
<stop offset="0.9999" stop-color="#2EB75B"/>
<stop offset="1" stop-color="#2CB85B"/>
</linearGradient>
<linearGradient id="paint24_linear_360_416" x1="-1.37877e+06" y1="-46994.4" x2="-1.37877e+06" y2="-45804.5" gradientUnits="userSpaceOnUse">
<stop stop-color="#B8912C"/>
<stop offset="0.9999" stop-color="#2EB75B"/>
<stop offset="1" stop-color="#2CB85B"/>
</linearGradient>
<linearGradient id="paint25_linear_360_416" x1="-1.37872e+06" y1="-46250.6" x2="-1.37872e+06" y2="-45079.2" gradientUnits="userSpaceOnUse">
<stop stop-color="#B8912C"/>
<stop offset="0.9999" stop-color="#2EB75B"/>
<stop offset="1" stop-color="#2CB85B"/>
</linearGradient>
<linearGradient id="paint26_linear_360_416" x1="-1.37873e+06" y1="-45275.4" x2="-1.37873e+06" y2="-44128.4" gradientUnits="userSpaceOnUse">
<stop stop-color="#B8912C"/>
<stop offset="0.9999" stop-color="#2EB75B"/>
<stop offset="1" stop-color="#2CB85B"/>
</linearGradient>
<linearGradient id="paint27_linear_360_416" x1="-1.3787e+06" y1="-44582.9" x2="-1.3787e+06" y2="-43453.1" gradientUnits="userSpaceOnUse">
<stop stop-color="#B8912C"/>
<stop offset="0.9999" stop-color="#2EB75B"/>
<stop offset="1" stop-color="#2CB85B"/>
</linearGradient>
<linearGradient id="paint28_linear_360_416" x1="-1.37871e+06" y1="-43967.6" x2="-1.37871e+06" y2="-42853.1" gradientUnits="userSpaceOnUse">
<stop stop-color="#B8912C"/>
<stop offset="0.9999" stop-color="#2EB75B"/>
<stop offset="1" stop-color="#2CB85B"/>
</linearGradient>
<linearGradient id="paint29_linear_360_416" x1="-1.3787e+06" y1="-43487.9" x2="-1.3787e+06" y2="-42385.2" gradientUnits="userSpaceOnUse">
<stop stop-color="#B8912C"/>
<stop offset="0.9999" stop-color="#2EB75B"/>
<stop offset="1" stop-color="#2CB85B"/>
</linearGradient>
<linearGradient id="paint30_linear_360_416" x1="-1.37877e+06" y1="-43076.9" x2="-1.37877e+06" y2="-41984.4" gradientUnits="userSpaceOnUse">
<stop stop-color="#B8912C"/>
<stop offset="0.9999" stop-color="#2EB75B"/>
<stop offset="1" stop-color="#2CB85B"/>
</linearGradient>
<linearGradient id="paint31_linear_360_416" x1="-1.37873e+06" y1="-42882.6" x2="-1.37873e+06" y2="-41794.9" gradientUnits="userSpaceOnUse">
<stop stop-color="#B8912C"/>
<stop offset="0.9999" stop-color="#2EB75B"/>
<stop offset="1" stop-color="#2CB85B"/>
</linearGradient>
<linearGradient id="paint32_linear_360_416" x1="-1.37874e+06" y1="-42799.3" x2="-1.37874e+06" y2="-41713.6" gradientUnits="userSpaceOnUse">
<stop stop-color="#B8912C"/>
<stop offset="0.9999" stop-color="#2EB75B"/>
<stop offset="1" stop-color="#2CB85B"/>
</linearGradient>
<linearGradient id="paint33_linear_360_416" x1="-1.37876e+06" y1="-42536.9" x2="-1.37876e+06" y2="-41457.6" gradientUnits="userSpaceOnUse">
<stop stop-color="#B8912C"/>
<stop offset="0.9999" stop-color="#2EB75B"/>
<stop offset="1" stop-color="#2CB85B"/>
</linearGradient>
<linearGradient id="paint34_linear_360_416" x1="-1.37874e+06" y1="-42133" x2="-1.37874e+06" y2="-41063.7" gradientUnits="userSpaceOnUse">
<stop stop-color="#B8912C"/>
<stop offset="0.9999" stop-color="#2EB75B"/>
<stop offset="1" stop-color="#2CB85B"/>
</linearGradient>
<linearGradient id="paint35_linear_360_416" x1="-1.37876e+06" y1="-41535.1" x2="-1.37876e+06" y2="-40480.7" gradientUnits="userSpaceOnUse">
<stop stop-color="#B8912C"/>
<stop offset="0.9999" stop-color="#2EB75B"/>
<stop offset="1" stop-color="#2CB85B"/>
</linearGradient>
<linearGradient id="paint36_linear_360_416" x1="-1.37874e+06" y1="-40814.8" x2="-1.37874e+06" y2="-39778.3" gradientUnits="userSpaceOnUse">
<stop stop-color="#B8912C"/>
<stop offset="0.9999" stop-color="#2EB75B"/>
<stop offset="1" stop-color="#2CB85B"/>
</linearGradient>
<linearGradient id="paint37_linear_360_416" x1="-1.37876e+06" y1="-39950.2" x2="-1.37876e+06" y2="-38935.3" gradientUnits="userSpaceOnUse">
<stop stop-color="#B8912C"/>
<stop offset="0.9999" stop-color="#2EB75B"/>
<stop offset="1" stop-color="#2CB85B"/>
</linearGradient>
<linearGradient id="paint38_linear_360_416" x1="-1.37873e+06" y1="-38983.6" x2="-1.37873e+06" y2="-37992.8" gradientUnits="userSpaceOnUse">
<stop stop-color="#B8912C"/>
<stop offset="0.9999" stop-color="#2EB75B"/>
<stop offset="1" stop-color="#2CB85B"/>
</linearGradient>
<linearGradient id="paint39_linear_360_416" x1="-1.37874e+06" y1="-37886.7" x2="-1.37874e+06" y2="-36923.3" gradientUnits="userSpaceOnUse">
<stop stop-color="#B8912C"/>
<stop offset="0.9999" stop-color="#2EB75B"/>
<stop offset="1" stop-color="#2CB85B"/>
</linearGradient>
<linearGradient id="paint40_linear_360_416" x1="-1.37872e+06" y1="-36667.1" x2="-1.37872e+06" y2="-35734.1" gradientUnits="userSpaceOnUse">
<stop stop-color="#B8912C"/>
<stop offset="0.9999" stop-color="#2EB75B"/>
<stop offset="1" stop-color="#2CB85B"/>
</linearGradient>
<linearGradient id="paint41_linear_360_416" x1="-1.37874e+06" y1="-35408" x2="-1.37874e+06" y2="-34506.5" gradientUnits="userSpaceOnUse">
<stop stop-color="#B8912C"/>
<stop offset="0.9999" stop-color="#2EB75B"/>
<stop offset="1" stop-color="#2CB85B"/>
</linearGradient>
<linearGradient id="paint42_linear_360_416" x1="-1.37874e+06" y1="-34045.7" x2="-1.37874e+06" y2="-33178.1" gradientUnits="userSpaceOnUse">
<stop stop-color="#B8912C"/>
<stop offset="0.9999" stop-color="#2EB75B"/>
<stop offset="1" stop-color="#2CB85B"/>
</linearGradient>
<linearGradient id="paint43_linear_360_416" x1="-1.37874e+06" y1="-32672" x2="-1.37874e+06" y2="-31838.8" gradientUnits="userSpaceOnUse">
<stop stop-color="#B8912C"/>
<stop offset="0.9999" stop-color="#2EB75B"/>
<stop offset="1" stop-color="#2CB85B"/>
</linearGradient>
<linearGradient id="paint44_linear_360_416" x1="-1.37874e+06" y1="-31225.4" x2="-1.37874e+06" y2="-30428.3" gradientUnits="userSpaceOnUse">
<stop stop-color="#B8912C"/>
<stop offset="0.9999" stop-color="#2EB75B"/>
<stop offset="1" stop-color="#2CB85B"/>
</linearGradient>
<linearGradient id="paint45_linear_360_416" x1="-1.37874e+06" y1="-29784.7" x2="-1.37874e+06" y2="-29023.6" gradientUnits="userSpaceOnUse">
<stop stop-color="#B8912C"/>
<stop offset="0.9999" stop-color="#2EB75B"/>
<stop offset="1" stop-color="#2CB85B"/>
</linearGradient>
<linearGradient id="paint46_linear_360_416" x1="-1.37867e+06" y1="-28373.7" x2="-1.37867e+06" y2="-27647.9" gradientUnits="userSpaceOnUse">
<stop stop-color="#B8912C"/>
<stop offset="0.9999" stop-color="#2EB75B"/>
<stop offset="1" stop-color="#2CB85B"/>
</linearGradient>
<linearGradient id="paint47_linear_360_416" x1="-1.37878e+06" y1="-26861.4" x2="-1.37878e+06" y2="-26173.4" gradientUnits="userSpaceOnUse">
<stop stop-color="#B8912C"/>
<stop offset="0.9999" stop-color="#2EB75B"/>
<stop offset="1" stop-color="#2CB85B"/>
</linearGradient>
<linearGradient id="paint48_linear_360_416" x1="-1.37874e+06" y1="-25930.8" x2="-1.37874e+06" y2="-25266.1" gradientUnits="userSpaceOnUse">
<stop stop-color="#B8912C"/>
<stop offset="0.9999" stop-color="#2EB75B"/>
<stop offset="1" stop-color="#2CB85B"/>
</linearGradient>
<linearGradient id="paint49_linear_360_416" x1="-1.37873e+06" y1="826.928" x2="-1.37873e+06" y2="814.338" gradientUnits="userSpaceOnUse">
<stop stop-color="#B8912C"/>
<stop offset="0.9999" stop-color="#2EB75B"/>
<stop offset="1" stop-color="#2CB85B"/>
</linearGradient>
<linearGradient id="paint50_linear_360_416" x1="-1.37869e+06" y1="2214.05" x2="-1.37869e+06" y2="2166.43" gradientUnits="userSpaceOnUse">
<stop stop-color="#B8912C"/>
<stop offset="0.9999" stop-color="#2EB75B"/>
<stop offset="1" stop-color="#2CB85B"/>
</linearGradient>
<linearGradient id="paint51_linear_360_416" x1="-1.37873e+06" y1="3814.05" x2="-1.37873e+06" y2="3726.1" gradientUnits="userSpaceOnUse">
<stop stop-color="#B8912C"/>
<stop offset="0.9999" stop-color="#2EB75B"/>
<stop offset="1" stop-color="#2CB85B"/>
</linearGradient>
<linearGradient id="paint52_linear_360_416" x1="-1.37873e+06" y1="6178.98" x2="-1.37873e+06" y2="6031.57" gradientUnits="userSpaceOnUse">
<stop stop-color="#B8912C"/>
<stop offset="0.9999" stop-color="#2EB75B"/>
<stop offset="1" stop-color="#2CB85B"/>
</linearGradient>
<linearGradient id="paint53_linear_360_416" x1="-1.37873e+06" y1="10084.2" x2="-1.37873e+06" y2="9838.71" gradientUnits="userSpaceOnUse">
<stop stop-color="#B8912C"/>
<stop offset="0.9999" stop-color="#2EB75B"/>
<stop offset="1" stop-color="#2CB85B"/>
</linearGradient>
<linearGradient id="paint54_linear_360_416" x1="-1.37873e+06" y1="14373.2" x2="-1.37873e+06" y2="14020.1" gradientUnits="userSpaceOnUse">
<stop stop-color="#B8912C"/>
<stop offset="0.9999" stop-color="#2EB75B"/>
<stop offset="1" stop-color="#2CB85B"/>
</linearGradient>
<linearGradient id="paint55_linear_360_416" x1="-1.37873e+06" y1="19586.7" x2="-1.37873e+06" y2="19102.8" gradientUnits="userSpaceOnUse">
<stop stop-color="#B8912C"/>
<stop offset="0.9999" stop-color="#2EB75B"/>
<stop offset="1" stop-color="#2CB85B"/>
</linearGradient>
<linearGradient id="paint56_linear_360_416" x1="-1.37871e+06" y1="25065.9" x2="-1.37871e+06" y2="24444.5" gradientUnits="userSpaceOnUse">
<stop stop-color="#B8912C"/>
<stop offset="0.9999" stop-color="#2EB75B"/>
<stop offset="1" stop-color="#2CB85B"/>
</linearGradient>
<linearGradient id="paint57_linear_360_416" x1="-1.37874e+06" y1="30560.5" x2="-1.37874e+06" y2="29801.3" gradientUnits="userSpaceOnUse">
<stop stop-color="#B8912C"/>
<stop offset="0.9999" stop-color="#2EB75B"/>
<stop offset="1" stop-color="#2CB85B"/>
</linearGradient>
<linearGradient id="paint58_linear_360_416" x1="-1.3787e+06" y1="35784.4" x2="-1.3787e+06" y2="34894.2" gradientUnits="userSpaceOnUse">
<stop stop-color="#B8912C"/>
<stop offset="0.9999" stop-color="#2EB75B"/>
<stop offset="1" stop-color="#2CB85B"/>
</linearGradient>
<linearGradient id="paint59_linear_360_416" x1="-1.37873e+06" y1="40968" x2="-1.37873e+06" y2="39947.7" gradientUnits="userSpaceOnUse">
<stop stop-color="#B8912C"/>
<stop offset="0.9999" stop-color="#2EB75B"/>
<stop offset="1" stop-color="#2CB85B"/>
</linearGradient>
<linearGradient id="paint60_linear_360_416" x1="-1.37873e+06" y1="44953.9" x2="-1.37873e+06" y2="43833.6" gradientUnits="userSpaceOnUse">
<stop stop-color="#B8912C"/>
<stop offset="0.9999" stop-color="#2EB75B"/>
<stop offset="1" stop-color="#2CB85B"/>
</linearGradient>
<linearGradient id="paint61_linear_360_416" x1="-1.37873e+06" y1="47913.4" x2="-1.37873e+06" y2="46718.7" gradientUnits="userSpaceOnUse">
<stop stop-color="#B8912C"/>
<stop offset="0.9999" stop-color="#2EB75B"/>
<stop offset="1" stop-color="#2CB85B"/>
</linearGradient>
<linearGradient id="paint62_linear_360_416" x1="-1.37877e+06" y1="49505.1" x2="-1.37877e+06" y2="48270.4" gradientUnits="userSpaceOnUse">
<stop stop-color="#B8912C"/>
<stop offset="0.9999" stop-color="#2EB75B"/>
<stop offset="1" stop-color="#2CB85B"/>
</linearGradient>
<linearGradient id="paint63_linear_360_416" x1="-1.37873e+06" y1="50227.6" x2="-1.37873e+06" y2="48974.6" gradientUnits="userSpaceOnUse">
<stop stop-color="#B8912C"/>
<stop offset="0.9999" stop-color="#2EB75B"/>
<stop offset="1" stop-color="#2CB85B"/>
</linearGradient>
<linearGradient id="paint64_linear_360_416" x1="-1.3787e+06" y1="50959.6" x2="-1.3787e+06" y2="49688.1" gradientUnits="userSpaceOnUse">
<stop stop-color="#B8912C"/>
<stop offset="0.9999" stop-color="#2EB75B"/>
<stop offset="1" stop-color="#2CB85B"/>
</linearGradient>
<linearGradient id="paint65_linear_360_416" x1="-1.37871e+06" y1="51383.6" x2="-1.37871e+06" y2="50101.3" gradientUnits="userSpaceOnUse">
<stop stop-color="#B8912C"/>
<stop offset="0.9999" stop-color="#2EB75B"/>
<stop offset="1" stop-color="#2CB85B"/>
</linearGradient>
<linearGradient id="paint66_linear_360_416" x1="-1.37876e+06" y1="51521.7" x2="-1.37876e+06" y2="50235.7" gradientUnits="userSpaceOnUse">
<stop stop-color="#B8912C"/>
<stop offset="0.9999" stop-color="#2EB75B"/>
<stop offset="1" stop-color="#2CB85B"/>
</linearGradient>
<linearGradient id="paint67_linear_360_416" x1="-1.37873e+06" y1="51409.3" x2="-1.37873e+06" y2="50126" gradientUnits="userSpaceOnUse">
<stop stop-color="#B8912C"/>
<stop offset="0.9999" stop-color="#2EB75B"/>
<stop offset="1" stop-color="#2CB85B"/>
</linearGradient>
<linearGradient id="paint68_linear_360_416" x1="-1.37873e+06" y1="51069.9" x2="-1.37873e+06" y2="49795" gradientUnits="userSpaceOnUse">
<stop stop-color="#B8912C"/>
<stop offset="0.9999" stop-color="#2EB75B"/>
<stop offset="1" stop-color="#2CB85B"/>
</linearGradient>
<linearGradient id="paint69_linear_360_416" x1="-1.37874e+06" y1="50262.2" x2="-1.37874e+06" y2="49007.4" gradientUnits="userSpaceOnUse">
<stop stop-color="#B8912C"/>
<stop offset="0.9999" stop-color="#2EB75B"/>
<stop offset="1" stop-color="#2CB85B"/>
</linearGradient>
<linearGradient id="paint70_linear_360_416" x1="-1.37875e+06" y1="49728.2" x2="-1.37875e+06" y2="48486.6" gradientUnits="userSpaceOnUse">
<stop stop-color="#B8912C"/>
<stop offset="0.9999" stop-color="#2EB75B"/>
<stop offset="1" stop-color="#2CB85B"/>
</linearGradient>
<linearGradient id="paint71_linear_360_416" x1="-1.3787e+06" y1="49078.1" x2="-1.3787e+06" y2="47852.7" gradientUnits="userSpaceOnUse">
<stop stop-color="#B8912C"/>
<stop offset="0.9999" stop-color="#2EB75B"/>
<stop offset="1" stop-color="#2CB85B"/>
</linearGradient>
<linearGradient id="paint72_linear_360_416" x1="-1.37873e+06" y1="48385.9" x2="-1.37873e+06" y2="47177.7" gradientUnits="userSpaceOnUse">
<stop stop-color="#B8912C"/>
<stop offset="0.9999" stop-color="#2EB75B"/>
<stop offset="1" stop-color="#2CB85B"/>
</linearGradient>
<linearGradient id="paint73_linear_360_416" x1="-1.37877e+06" y1="47652.5" x2="-1.37877e+06" y2="46462.5" gradientUnits="userSpaceOnUse">
<stop stop-color="#B8912C"/>
<stop offset="0.9999" stop-color="#2EB75B"/>
<stop offset="1" stop-color="#2CB85B"/>
</linearGradient>
<linearGradient id="paint74_linear_360_416" x1="-1.37871e+06" y1="46908.6" x2="-1.37871e+06" y2="45737.2" gradientUnits="userSpaceOnUse">
<stop stop-color="#B8912C"/>
<stop offset="0.9999" stop-color="#2EB75B"/>
<stop offset="1" stop-color="#2CB85B"/>
</linearGradient>
<linearGradient id="paint75_linear_360_416" x1="-1.37873e+06" y1="45933.5" x2="-1.37873e+06" y2="44786.4" gradientUnits="userSpaceOnUse">
<stop stop-color="#B8912C"/>
<stop offset="0.9999" stop-color="#2EB75B"/>
<stop offset="1" stop-color="#2CB85B"/>
</linearGradient>
<linearGradient id="paint76_linear_360_416" x1="-1.3787e+06" y1="45240.9" x2="-1.3787e+06" y2="44111.1" gradientUnits="userSpaceOnUse">
<stop stop-color="#B8912C"/>
<stop offset="0.9999" stop-color="#2EB75B"/>
<stop offset="1" stop-color="#2CB85B"/>
</linearGradient>
<linearGradient id="paint77_linear_360_416" x1="-1.3787e+06" y1="44625.6" x2="-1.3787e+06" y2="43511.1" gradientUnits="userSpaceOnUse">
<stop stop-color="#B8912C"/>
<stop offset="0.9999" stop-color="#2EB75B"/>
<stop offset="1" stop-color="#2CB85B"/>
</linearGradient>
<linearGradient id="paint78_linear_360_416" x1="-1.3787e+06" y1="44145.9" x2="-1.3787e+06" y2="43043.3" gradientUnits="userSpaceOnUse">
<stop stop-color="#B8912C"/>
<stop offset="0.9999" stop-color="#2EB75B"/>
<stop offset="1" stop-color="#2CB85B"/>
</linearGradient>
<linearGradient id="paint79_linear_360_416" x1="-1.37877e+06" y1="43734.9" x2="-1.37877e+06" y2="42642.4" gradientUnits="userSpaceOnUse">
<stop stop-color="#B8912C"/>
<stop offset="0.9999" stop-color="#2EB75B"/>
<stop offset="1" stop-color="#2CB85B"/>
</linearGradient>
<linearGradient id="paint80_linear_360_416" x1="-1.37873e+06" y1="43540.6" x2="-1.37873e+06" y2="42452.9" gradientUnits="userSpaceOnUse">
<stop stop-color="#B8912C"/>
<stop offset="0.9999" stop-color="#2EB75B"/>
<stop offset="1" stop-color="#2CB85B"/>
</linearGradient>
<linearGradient id="paint81_linear_360_416" x1="-1.37873e+06" y1="43457.4" x2="-1.37873e+06" y2="42371.6" gradientUnits="userSpaceOnUse">
<stop stop-color="#B8912C"/>
<stop offset="0.9999" stop-color="#2EB75B"/>
<stop offset="1" stop-color="#2CB85B"/>
</linearGradient>
<linearGradient id="paint82_linear_360_416" x1="-1.37876e+06" y1="43195" x2="-1.37876e+06" y2="42115.7" gradientUnits="userSpaceOnUse">
<stop stop-color="#B8912C"/>
<stop offset="0.9999" stop-color="#2EB75B"/>
<stop offset="1" stop-color="#2CB85B"/>
</linearGradient>
<linearGradient id="paint83_linear_360_416" x1="-1.37873e+06" y1="42791" x2="-1.37873e+06" y2="41721.7" gradientUnits="userSpaceOnUse">
<stop stop-color="#B8912C"/>
<stop offset="0.9999" stop-color="#2EB75B"/>
<stop offset="1" stop-color="#2CB85B"/>
</linearGradient>
<linearGradient id="paint84_linear_360_416" x1="-1.37876e+06" y1="42193.1" x2="-1.37876e+06" y2="41138.7" gradientUnits="userSpaceOnUse">
<stop stop-color="#B8912C"/>
<stop offset="0.9999" stop-color="#2EB75B"/>
<stop offset="1" stop-color="#2CB85B"/>
</linearGradient>
<linearGradient id="paint85_linear_360_416" x1="-1.37873e+06" y1="41472.9" x2="-1.37873e+06" y2="40436.4" gradientUnits="userSpaceOnUse">
<stop stop-color="#B8912C"/>
<stop offset="0.9999" stop-color="#2EB75B"/>
<stop offset="1" stop-color="#2CB85B"/>
</linearGradient>
<linearGradient id="paint86_linear_360_416" x1="-1.37876e+06" y1="40608.2" x2="-1.37876e+06" y2="39593.3" gradientUnits="userSpaceOnUse">
<stop stop-color="#B8912C"/>
<stop offset="0.9999" stop-color="#2EB75B"/>
<stop offset="1" stop-color="#2CB85B"/>
</linearGradient>
<linearGradient id="paint87_linear_360_416" x1="-1.37872e+06" y1="39641.7" x2="-1.37872e+06" y2="38650.9" gradientUnits="userSpaceOnUse">
<stop stop-color="#B8912C"/>
<stop offset="0.9999" stop-color="#2EB75B"/>
<stop offset="1" stop-color="#2CB85B"/>
</linearGradient>
<linearGradient id="paint88_linear_360_416" x1="-1.37873e+06" y1="38544.7" x2="-1.37873e+06" y2="37581.3" gradientUnits="userSpaceOnUse">
<stop stop-color="#B8912C"/>
<stop offset="0.9999" stop-color="#2EB75B"/>
<stop offset="1" stop-color="#2CB85B"/>
</linearGradient>
<linearGradient id="paint89_linear_360_416" x1="-1.37871e+06" y1="37325.1" x2="-1.37871e+06" y2="36392.1" gradientUnits="userSpaceOnUse">
<stop stop-color="#B8912C"/>
<stop offset="0.9999" stop-color="#2EB75B"/>
<stop offset="1" stop-color="#2CB85B"/>
</linearGradient>
<linearGradient id="paint90_linear_360_416" x1="-1.37873e+06" y1="36066" x2="-1.37873e+06" y2="35164.5" gradientUnits="userSpaceOnUse">
<stop stop-color="#B8912C"/>
<stop offset="0.9999" stop-color="#2EB75B"/>
<stop offset="1" stop-color="#2CB85B"/>
</linearGradient>
<linearGradient id="paint91_linear_360_416" x1="-1.37873e+06" y1="34703.7" x2="-1.37873e+06" y2="33836.2" gradientUnits="userSpaceOnUse">
<stop stop-color="#B8912C"/>
<stop offset="0.9999" stop-color="#2EB75B"/>
<stop offset="1" stop-color="#2CB85B"/>
</linearGradient>
<linearGradient id="paint92_linear_360_416" x1="-1.37873e+06" y1="33330" x2="-1.37873e+06" y2="32496.8" gradientUnits="userSpaceOnUse">
<stop stop-color="#B8912C"/>
<stop offset="0.9999" stop-color="#2EB75B"/>
<stop offset="1" stop-color="#2CB85B"/>
</linearGradient>
<linearGradient id="paint93_linear_360_416" x1="-1.37873e+06" y1="31883.4" x2="-1.37873e+06" y2="31086.3" gradientUnits="userSpaceOnUse">
<stop stop-color="#B8912C"/>
<stop offset="0.9999" stop-color="#2EB75B"/>
<stop offset="1" stop-color="#2CB85B"/>
</linearGradient>
<linearGradient id="paint94_linear_360_416" x1="-1.37873e+06" y1="30442.6" x2="-1.37873e+06" y2="29681.6" gradientUnits="userSpaceOnUse">
<stop stop-color="#B8912C"/>
<stop offset="0.9999" stop-color="#2EB75B"/>
<stop offset="1" stop-color="#2CB85B"/>
</linearGradient>
<linearGradient id="paint95_linear_360_416" x1="-1.37867e+06" y1="29031.7" x2="-1.37867e+06" y2="28305.9" gradientUnits="userSpaceOnUse">
<stop stop-color="#B8912C"/>
<stop offset="0.9999" stop-color="#2EB75B"/>
<stop offset="1" stop-color="#2CB85B"/>
</linearGradient>
<linearGradient id="paint96_linear_360_416" x1="-1.37878e+06" y1="27519.4" x2="-1.37878e+06" y2="26831.4" gradientUnits="userSpaceOnUse">
<stop stop-color="#B8912C"/>
<stop offset="0.9999" stop-color="#2EB75B"/>
<stop offset="1" stop-color="#2CB85B"/>
</linearGradient>
<linearGradient id="paint97_linear_360_416" x1="-1.37873e+06" y1="26588.8" x2="-1.37873e+06" y2="25924.1" gradientUnits="userSpaceOnUse">
<stop stop-color="#B8912C"/>
<stop offset="0.9999" stop-color="#2EB75B"/>
<stop offset="1" stop-color="#2CB85B"/>
</linearGradient>
<linearGradient id="paint98_linear_360_416" x1="-1.37873e+06" y1="25440.2" x2="-1.37873e+06" y2="24804.2" gradientUnits="userSpaceOnUse">
<stop stop-color="#B8912C"/>
<stop offset="0.9999" stop-color="#2EB75B"/>
<stop offset="1" stop-color="#2CB85B"/>
</linearGradient>
<linearGradient id="paint99_linear_360_416" x1="-1.37876e+06" y1="24527.4" x2="-1.37876e+06" y2="23914.2" gradientUnits="userSpaceOnUse">
<stop stop-color="#B8912C"/>
<stop offset="0.9999" stop-color="#2EB75B"/>
<stop offset="1" stop-color="#2CB85B"/>
</linearGradient>
<linearGradient id="paint100_linear_360_416" x1="-1.37873e+06" y1="23789.4" x2="-1.37873e+06" y2="23194.7" gradientUnits="userSpaceOnUse">
<stop stop-color="#B8912C"/>
<stop offset="0.9999" stop-color="#2EB75B"/>
<stop offset="1" stop-color="#2CB85B"/>
</linearGradient>
<linearGradient id="paint101_linear_360_416" x1="-1.37869e+06" y1="23176.1" x2="-1.37869e+06" y2="22596.7" gradientUnits="userSpaceOnUse">
<stop stop-color="#B8912C"/>
<stop offset="0.9999" stop-color="#2EB75B"/>
<stop offset="1" stop-color="#2CB85B"/>
</linearGradient>
<linearGradient id="paint102_linear_360_416" x1="-1.37871e+06" y1="22654.4" x2="-1.37871e+06" y2="22088" gradientUnits="userSpaceOnUse">
<stop stop-color="#B8912C"/>
<stop offset="0.9999" stop-color="#2EB75B"/>
<stop offset="1" stop-color="#2CB85B"/>
</linearGradient>
<linearGradient id="paint103_linear_360_416" x1="-1.3787e+06" y1="22230.2" x2="-1.3787e+06" y2="21674.4" gradientUnits="userSpaceOnUse">
<stop stop-color="#B8912C"/>
<stop offset="0.9999" stop-color="#2EB75B"/>
<stop offset="1" stop-color="#2CB85B"/>
</linearGradient>
<linearGradient id="paint104_linear_360_416" x1="-1.37872e+06" y1="22248.5" x2="-1.37872e+06" y2="21692.3" gradientUnits="userSpaceOnUse">
<stop stop-color="#B8912C"/>
<stop offset="0.9999" stop-color="#2EB75B"/>
<stop offset="1" stop-color="#2CB85B"/>
</linearGradient>
<linearGradient id="paint105_linear_360_416" x1="-1.37877e+06" y1="22838.2" x2="-1.37877e+06" y2="22267.1" gradientUnits="userSpaceOnUse">
<stop stop-color="#B8912C"/>
<stop offset="0.9999" stop-color="#2EB75B"/>
<stop offset="1" stop-color="#2CB85B"/>
</linearGradient>
<linearGradient id="paint106_linear_360_416" x1="-1.37874e+06" y1="23448.2" x2="-1.37874e+06" y2="22861.8" gradientUnits="userSpaceOnUse">
<stop stop-color="#B8912C"/>
<stop offset="0.9999" stop-color="#2EB75B"/>
<stop offset="1" stop-color="#2CB85B"/>
</linearGradient>
<linearGradient id="paint107_linear_360_416" x1="-1.37873e+06" y1="24068.2" x2="-1.37873e+06" y2="23466.2" gradientUnits="userSpaceOnUse">
<stop stop-color="#B8912C"/>
<stop offset="0.9999" stop-color="#2EB75B"/>
<stop offset="1" stop-color="#2CB85B"/>
</linearGradient>
<linearGradient id="paint108_linear_360_416" x1="-1.37869e+06" y1="24705.3" x2="-1.37869e+06" y2="24087.3" gradientUnits="userSpaceOnUse">
<stop stop-color="#B8912C"/>
<stop offset="0.9999" stop-color="#2EB75B"/>
<stop offset="1" stop-color="#2CB85B"/>
</linearGradient>
<linearGradient id="paint109_linear_360_416" x1="-1.3787e+06" y1="25295.4" x2="-1.3787e+06" y2="24662.7" gradientUnits="userSpaceOnUse">
<stop stop-color="#B8912C"/>
<stop offset="0.9999" stop-color="#2EB75B"/>
<stop offset="1" stop-color="#2CB85B"/>
</linearGradient>
<linearGradient id="paint110_linear_360_416" x1="-1.37872e+06" y1="25872" x2="-1.37872e+06" y2="25224.8" gradientUnits="userSpaceOnUse">
<stop stop-color="#B8912C"/>
<stop offset="0.9999" stop-color="#2EB75B"/>
<stop offset="1" stop-color="#2CB85B"/>
</linearGradient>
<linearGradient id="paint111_linear_360_416" x1="-1.37872e+06" y1="26403.6" x2="-1.37872e+06" y2="25743.1" gradientUnits="userSpaceOnUse">
<stop stop-color="#B8912C"/>
<stop offset="0.9999" stop-color="#2EB75B"/>
<stop offset="1" stop-color="#2CB85B"/>
</linearGradient>
<linearGradient id="paint112_linear_360_416" x1="-1.37873e+06" y1="26891.2" x2="-1.37873e+06" y2="26218.4" gradientUnits="userSpaceOnUse">
<stop stop-color="#B8912C"/>
<stop offset="0.9999" stop-color="#2EB75B"/>
<stop offset="1" stop-color="#2CB85B"/>
</linearGradient>
<linearGradient id="paint113_linear_360_416" x1="-1.37872e+06" y1="27358.1" x2="-1.37872e+06" y2="26673.7" gradientUnits="userSpaceOnUse">
<stop stop-color="#B8912C"/>
<stop offset="0.9999" stop-color="#2EB75B"/>
<stop offset="1" stop-color="#2CB85B"/>
</linearGradient>
<linearGradient id="paint114_linear_360_416" x1="-1.37873e+06" y1="27709.7" x2="-1.37873e+06" y2="27016.4" gradientUnits="userSpaceOnUse">
<stop stop-color="#B8912C"/>
<stop offset="0.9999" stop-color="#2EB75B"/>
<stop offset="1" stop-color="#2CB85B"/>
</linearGradient>
<linearGradient id="paint115_linear_360_416" x1="-1.37873e+06" y1="28014.7" x2="-1.37873e+06" y2="27313.8" gradientUnits="userSpaceOnUse">
<stop stop-color="#B8912C"/>
<stop offset="0.9999" stop-color="#2EB75B"/>
<stop offset="1" stop-color="#2CB85B"/>
</linearGradient>
<linearGradient id="paint116_linear_360_416" x1="-1.3787e+06" y1="28201.1" x2="-1.3787e+06" y2="27495.5" gradientUnits="userSpaceOnUse">
<stop stop-color="#B8912C"/>
<stop offset="0.9999" stop-color="#2EB75B"/>
<stop offset="1" stop-color="#2CB85B"/>
</linearGradient>
<linearGradient id="paint117_linear_360_416" x1="-1.37877e+06" y1="28047.3" x2="-1.37877e+06" y2="27345.5" gradientUnits="userSpaceOnUse">
<stop stop-color="#B8912C"/>
<stop offset="0.9999" stop-color="#2EB75B"/>
<stop offset="1" stop-color="#2CB85B"/>
</linearGradient>
<clipPath id="clip0_360_416">
<rect width="1920" height="650" fill="white" transform="translate(0 4)"/>
</clipPath>
</defs>
</svg>
